<?xml version="1.0" encoding="utf-8"?>
<!-- Generator: Adobe Illustrator 27.2.0, SVG Export Plug-In . SVG Version: 6.00 Build 0)  -->
<svg version="1.1" xmlns="http://www.w3.org/2000/svg" xmlns:xlink="http://www.w3.org/1999/xlink" x="0px" y="0px"
	 viewBox="0 0 150 181" style="enable-background:new 0 0 150 181;" xml:space="preserve">
<style type="text/css">
	.st0{fill:#E7266A;}
	.st1{fill:#37474F;}
	.st2{fill:#FFFFFF;}
	.st3{fill:#484F59;}
	.st4{fill:#E6E5E5;}
	.st5{fill:none;stroke:#FFFFFF;stroke-miterlimit:10;}
	.st6{fill:#CDD5D8;}
	.st7{fill:#EBEFF2;}
	.st8{fill:#17DC96;}
	.st9{fill:#15C586;}
	.st10{fill:#12AE77;}
</style>
<g id="Layer_1">
	<g>
		<g>
			<g>
				<g>
					
						<ellipse transform="matrix(0.1587 -0.9873 0.9873 0.1587 -10.1937 122.0936)" class="st0" cx="66.54" cy="67.03" rx="66.95" ry="66.95"/>
				</g>
			</g>
			<g>
				<g>
					<path class="st1" d="M67.68,149.36c-0.61,0-1.09-0.49-1.09-1.09c0-0.61,0.49-1.09,1.09-1.09c18.8,0,36.99-6.74,51.22-18.97
						c0.46-0.39,1.15-0.34,1.54,0.12c0.4,0.46,0.34,1.15-0.12,1.54C105.7,142.44,87,149.36,67.68,149.36z"/>
				</g>
			</g>
			<g>
				<g>
					<path class="st1" d="M128.66,140.66c-0.31,0-0.61-0.13-0.83-0.38c-0.4-0.46-0.34-1.15,0.12-1.54
						c5.18-4.45,9.87-9.48,13.95-14.94c0.36-0.49,1.05-0.58,1.53-0.22c0.49,0.36,0.58,1.05,0.22,1.53
						c-4.17,5.6-8.98,10.74-14.27,15.29C129.17,140.57,128.91,140.66,128.66,140.66z"/>
				</g>
			</g>
		</g>
		<g>
			<path class="st2" d="M110.79,81.2l-7.75-7.75l7.75-7.75l7.75,7.75L110.79,81.2z M104.77,73.44l6.02,6.02l6.02-6.02l-6.02-6.02
				L104.77,73.44z"/>
		</g>
		<g>
			<g>
				
					<rect x="89.96" y="177.81" transform="matrix(0.7069 -0.7074 0.7074 0.7069 -100.195 116.6122)" class="st1" width="1.27" height="2.76"/>
			</g>
			<g>
				
					<rect x="84.99" y="172.84" transform="matrix(0.7071 -0.7071 0.7071 0.7071 -98.1119 111.5679)" class="st1" width="1.27" height="2.76"/>
			</g>
			<g>
				
					<rect x="84.24" y="178.56" transform="matrix(0.7071 -0.7071 0.7071 0.7071 -101.6283 113.0295)" class="st1" width="2.76" height="1.27"/>
			</g>
			<g>
				
					<rect x="89.21" y="173.59" transform="matrix(0.7071 -0.7071 0.7071 0.7071 -96.6582 115.0882)" class="st1" width="2.76" height="1.27"/>
			</g>
		</g>
		<g>
			<path class="st1" d="M30.68,153.68c-5.51,0-10-4.48-10-10s4.48-10,10-10c5.51,0,10,4.48,10,10S36.19,153.68,30.68,153.68z
				 M30.68,135.92c-4.28,0-7.76,3.48-7.76,7.76c0,4.28,3.48,7.76,7.76,7.76c4.28,0,7.76-3.48,7.76-7.76
				C38.44,139.41,34.96,135.92,30.68,135.92z"/>
		</g>
		<g>
			<path class="st3" d="M131.54,125.13v-10.22l8.85,5.11L131.54,125.13z M132.77,117.03v5.98l5.18-2.99L132.77,117.03z"/>
		</g>
		<g>
			<g>
				<g>
					<path class="st1" d="M2.61,111.12c-0.17,0.13-0.38,0.21-0.61,0.22c-0.6,0.03-1.11-0.44-1.14-1.05
						c-0.12-2.81-0.08-5.66,0.12-8.48c0.04-0.61,0.56-1.06,1.17-1.02c0.6,0.04,1.06,0.56,1.02,1.17c-0.19,2.73-0.23,5.51-0.11,8.24
						C3.07,110.57,2.89,110.91,2.61,111.12z"/>
				</g>
			</g>
			<path class="st1" d="M17.8,151.53c-7.05-9.42-11.66-20.02-13.69-31.52c-0.1-0.59-0.67-0.99-1.27-0.89
				c-0.59,0.11-0.99,0.67-0.89,1.27c1.87,10.61,5.89,20.46,11.92,29.37c0.03,0.08,0.05,0.17,0.1,0.24
				c5.8,8.36,13.07,15.38,21.61,20.85c0.4,0.25,0.89,0.22,1.25-0.04c0.1-0.08,0.19-0.17,0.27-0.28c0.33-0.51,0.18-1.19-0.33-1.51
				C29.43,164.31,23.07,158.44,17.8,151.53C17.8,151.53,17.8,151.53,17.8,151.53z"/>
		</g>
	</g>
</g>
<g id="Layer_6">
	<g>
		<path class="st4" d="M58.92,89.1c-2.94,0-4.24-3.05-5.39-5.73c-0.89-2.07-1.8-4.22-3.1-4.22c-1.3,0-2.22,2.15-3.11,4.22
			c-1.15,2.69-2.45,5.73-5.4,5.73c-2.95,0-4.25-3.05-5.4-5.73c-0.89-2.07-1.8-4.22-3.11-4.22c-1.31,0-2.22,2.15-3.11,4.22
			c-1.15,2.69-2.45,5.73-5.4,5.73c-2.95,0-4.25-3.04-5.4-5.73c-0.89-2.07-1.81-4.22-3.12-4.22c-1.31,0-2.23,2.15-3.12,4.22
			c-1.15,2.69-2.45,5.73-5.4,5.73v-2.49c1.31,0,2.23-2.15,3.12-4.22c1.15-2.69,2.45-5.73,5.4-5.73c2.95,0,4.25,3.04,5.4,5.73
			c0.89,2.07,1.81,4.22,3.12,4.22c1.3,0,2.22-2.15,3.11-4.22c1.15-2.69,2.45-5.73,5.4-5.73c2.95,0,4.25,3.04,5.4,5.73
			c0.89,2.08,1.8,4.22,3.11,4.22c1.3,0,2.22-2.15,3.11-4.22c1.15-2.69,2.45-5.73,5.4-5.73c2.94,0,4.24,3.05,5.39,5.73
			c0.89,2.07,1.8,4.22,3.1,4.22V89.1z"/>
	</g>
</g>
<g id="Layer_5">
	<g>
		<path class="st5" d="M25.32,26.6h36.17l0.34,10.87H60.3c-0.75-3.42-1.7-5.64-2.86-6.67c-1.16-1.03-3.59-1.55-7.29-1.55h-3.56
			v32.73c0,2.46,0.38,3.99,1.16,4.58c0.77,0.59,2.46,0.98,5.06,1.16v1.19H34.16v-1.19c2.71-0.21,4.39-0.65,5.06-1.34
			c0.67-0.68,1-2.4,1-5.16V29.25h-3.59c-3.54,0-5.95,0.51-7.23,1.53c-1.28,1.02-2.24,3.25-2.89,6.68h-1.56L25.32,26.6z"/>
	</g>
</g>
<g id="Layer_4">
	<g>
		<g>
			<path class="st2" d="M107.99,54.49c-0.24,0-0.49-0.06-0.71-0.18c-0.06-0.03-0.12-0.07-0.17-0.11c-0.92-0.64-2.81-1.95-4.02-2.89
				c-6.01-4.67-7.09-6.9-7.38-8.18c-0.21-0.64-0.34-1.45-0.35-2.27c-0.03-2.19,0.8-4.32,2.28-5.83c1.36-1.38,3.14-2.15,5.02-2.16
				c1.95,0,3.73,0.73,5.09,2c1.34-1.32,3.14-2.1,5.04-2.13h0c4.14,0,7.44,3.5,7.49,7.79c0.01,0.83-0.1,1.64-0.33,2.41
				c-0.23,1.17-1.25,3.44-7.12,8.25c-1.67,1.37-3.03,2.4-4.06,3.05C108.54,54.41,108.27,54.49,107.99,54.49z M102.74,35.82
				c-1.15,0-2.19,0.46-2.99,1.27c-0.93,0.95-1.46,2.31-1.44,3.72c0.01,0.54,0.09,1.05,0.24,1.53c0.17,0.71,1.05,2.51,6.35,6.63
				c0.92,0.72,2.25,1.66,3.1,2.25c0.81-0.58,1.82-1.36,2.96-2.3c5.32-4.36,6.04-6.22,6.13-6.68c0.18-0.61,0.24-1.13,0.24-1.66
				c-0.03-2.69-2.02-4.88-4.41-4.88c-1.66,0.02-3.06,0.87-3.86,2.27c-0.26,0.45-0.74,0.74-1.26,0.75c-0.5-0.01-1.01-0.26-1.28-0.71
				C105.69,36.64,104.28,35.82,102.74,35.82z"/>
		</g>
	</g>
</g>
<g id="Layer_3">
	<g>
		<path class="st1" d="M131.92,159.46c-1.42,0-2.09-1.26-2.68-2.36c-0.6-1.13-1.01-1.81-1.76-1.81c-0.74,0-1.16,0.68-1.76,1.81
			c-0.59,1.11-1.26,2.36-2.68,2.36c-1.42,0-2.09-1.26-2.68-2.36c-0.6-1.13-1.02-1.81-1.76-1.81c-0.74,0-1.16,0.68-1.76,1.81
			c-0.59,1.11-1.26,2.36-2.68,2.36c-1.42,0-2.09-1.26-2.68-2.36c-0.6-1.13-1.02-1.81-1.76-1.81c-0.74,0-1.16,0.68-1.76,1.81
			c-0.59,1.11-1.26,2.36-2.68,2.36c-1.42,0-2.09-1.26-2.68-2.36c-0.6-1.13-1.02-1.81-1.76-1.81s-1.16,0.68-1.76,1.81
			c-0.59,1.11-1.26,2.36-2.68,2.36c-1.42,0-2.09-1.26-2.68-2.36c-0.6-1.13-1.02-1.81-1.76-1.81c-0.74,0-1.16,0.68-1.76,1.81
			c-0.59,1.11-1.26,2.36-2.68,2.36s-2.09-1.26-2.68-2.36c-0.6-1.13-1.02-1.81-1.76-1.81c-0.74,0-1.16,0.68-1.76,1.81
			c-0.59,1.11-1.26,2.36-2.68,2.36c-1.42,0-2.09-1.26-2.68-2.36c-0.6-1.13-1.02-1.81-1.76-1.81c-0.74,0-1.16,0.68-1.76,1.81
			c-0.59,1.11-1.26,2.36-2.68,2.36v-1.04c0.74,0,1.16-0.68,1.76-1.81c0.59-1.11,1.26-2.36,2.68-2.36c1.43,0,2.09,1.26,2.68,2.36
			c0.6,1.13,1.02,1.81,1.76,1.81c0.74,0,1.16-0.68,1.76-1.81c0.59-1.11,1.26-2.36,2.68-2.36c1.42,0,2.09,1.26,2.68,2.36
			c0.6,1.13,1.02,1.81,1.76,1.81c0.74,0,1.16-0.68,1.76-1.81c0.59-1.11,1.26-2.36,2.68-2.36c1.42,0,2.09,1.26,2.68,2.36
			c0.6,1.13,1.02,1.81,1.76,1.81s1.16-0.68,1.76-1.81c0.59-1.11,1.26-2.36,2.68-2.36s2.09,1.26,2.68,2.36
			c0.6,1.13,1.02,1.81,1.76,1.81c0.74,0,1.16-0.68,1.76-1.81c0.59-1.11,1.26-2.36,2.68-2.36c1.42,0,2.09,1.26,2.68,2.36
			c0.6,1.13,1.02,1.81,1.76,1.81c0.74,0,1.16-0.68,1.76-1.81c0.59-1.11,1.26-2.36,2.68-2.36c1.42,0,2.09,1.26,2.68,2.36
			c0.6,1.13,1.02,1.81,1.76,1.81c0.74,0,1.16-0.68,1.76-1.81c0.59-1.11,1.26-2.36,2.68-2.36c1.42,0,2.09,1.26,2.68,2.36
			c0.6,1.13,1.01,1.81,1.76,1.81V159.46z"/>
	</g>
</g>
<g id="Layer_2">
	<g>
		<g>
			<path class="st6" d="M83.32,35.1L83.32,35.1c-1.97-0.53-4.07-0.22-5.81,0.84l-0.99,0.61l-28.6,106.61
				c1.55-0.07,3.27-2.06,4.22-4.88c-0.01,0.03-0.01,0.05-0.01,0.08c0-0.02,0.02-0.06,0.02-0.08c-0.66,3.26,0.04,6.1,1.69,6.55
				c1.66,0.44,3.69-1.68,4.74-4.83c0,0.02-0.01,0.06-0.02,0.08c0.01-0.03,0.02-0.05,0.02-0.07h0c-0.59,2.93-0.09,5.51,1.21,6.33
				l28.6-106.6l-0.25-0.55C87.24,37.17,85.46,35.67,83.32,35.1z"/>
			<path class="st4" d="M59.82,146.34c-1.31-0.82-1.81-3.41-1.22-6.34h0c-0.01,0.02-0.02,0.05-0.02,0.07c0-0.02,0.01-0.06,0.02-0.08
				c-1.06,3.15-3.08,5.27-4.74,4.83c-1.66-0.45-2.36-3.3-1.69-6.55c-0.01,0.02-0.02,0.06-0.02,0.08c0.01-0.02,0-0.05,0.01-0.08l0,0
				c-0.95,2.83-2.68,4.83-4.23,4.88l1.9,16.7L59.82,146.34z"/>
			<path class="st1" d="M48.88,151.66l0.93,8.2l4.91-6.63c-0.82-0.7-1.73-1.22-2.74-1.48C50.98,151.47,49.94,151.45,48.88,151.66z"
				/>
			<path class="st7" d="M84.33,38.63l-3.72-1c-0.76-0.2-1.54,0.25-1.74,1l-26.73,99.63l0,0c-0.01,0.03-0.01,0.05-0.01,0.08
				c0-0.02,0.02-0.06,0.02-0.08c-0.66,3.26,0.04,6.1,1.69,6.55c1.66,0.44,3.69-1.68,4.74-4.83c0,0.02-0.01,0.06-0.02,0.08
				c0.01-0.03,0.02-0.05,0.02-0.07h0l26.73-99.63C85.54,39.62,85.09,38.84,84.33,38.63z"/>
		</g>
	</g>
</g>
<g id="Layer_7">
	<g>
		<path class="st6" d="M30.13,104.04c-4.48-0.51-4.47-4.34,0.01-4.84c7.93-0.74,12.9-1.32,20.78-2.23c0.7,3.12,0.69,6.26-0.01,9.38
			C43.03,105.41,38.06,104.81,30.13,104.04z"/>
		<path class="st4" d="M140.13,104.78c11.82-0.31,11.82-5.58,0.01-5.92c-19.86-0.58-69.2-1.12-89.06-1.8c0,3.07-0.01,6.14-0.02,9.21
			C70.93,105.64,120.27,105.29,140.13,104.78z"/>
		
			<rect x="44.73" y="100.19" transform="matrix(2.077905e-03 -1 1 2.077905e-03 -52.13 151.078)" class="st7" width="9.8" height="2.93"/>
		<path class="st8" d="M32.51,104.14l0.01-5.03c-1.85-1.46-5.23-2.38-8.94-2.25c-1.73,0.06-3.31,0.34-4.65,0.78
			c-2.8,0.92-5.73,3.93-10.09,2.3c0,0,3.26,4.86,10.91,6.05c1.77,0.28,3.29,0.43,5.29,0.36C28.23,106.24,30.94,105.38,32.51,104.14z
			"/>
		<path class="st9" d="M32.52,100.72l0-1.6c-0.06-0.04-0.09-0.09-0.15-0.13c-1.88-1.39-5.18-2.26-8.79-2.13
			c-1.73,0.06-3.31,0.34-4.65,0.78c-2.8,0.92-5.73,3.93-10.09,2.3c0,0,2.06,3.08,11.01,0.7C26.04,98.99,30.41,99.97,32.52,100.72z"
			/>
	</g>
</g>
<g id="Layer_8">
	<g>
		<path class="st8" d="M88.01,57.9c-2.56,0.69-5.2-0.84-5.89-3.4l-7.78-29.02c-0.69-2.56,0.84-5.2,3.4-5.89l0,0
			c2.56-0.69,5.2,0.83,5.89,3.4l7.78,29.02C92.09,54.57,90.57,57.21,88.01,57.9L88.01,57.9z"/>
		<path class="st8" d="M114.05,155.09c-1.15,0.31-2.34-0.37-2.65-1.53l-3.5-13.06c-0.31-1.16,0.37-2.34,1.53-2.65l0,0
			c1.15-0.31,2.34,0.37,2.65,1.53l3.5,13.06C115.89,153.59,115.2,154.78,114.05,155.09L114.05,155.09z"/>
		<path class="st8" d="M106.13,145.23c-0.61,0.16-1.23-0.2-1.39-0.8L73.58,28.13c-0.16-0.6,0.2-1.23,0.8-1.39l9.85-2.64
			c0.6-0.16,1.23,0.2,1.39,0.8l31.16,116.3c0.16,0.6-0.2,1.23-0.8,1.39L106.13,145.23z"/>
		<path class="st1" d="M88.11,34.21l-2.49-9.31c-0.16-0.6-0.78-0.96-1.39-0.8l-9.85,2.64c-0.61,0.16-0.96,0.78-0.8,1.39l2.49,9.3
			L88.11,34.21z"/>
		<polygon class="st1" points="110.17,152.75 104.73,144.55 110.79,142.93 116.85,141.3 116.24,151.12 		"/>
		<path class="st1" d="M107.13,129.25c-1.15,0.31-2.34-0.37-2.65-1.53l-3.5-13.06c-0.31-1.16,0.37-2.34,1.53-2.65l0,0
			c1.15-0.31,2.34,0.37,2.65,1.53l3.5,13.06C108.97,127.76,108.28,128.94,107.13,129.25L107.13,129.25z"/>
		<path class="st10" d="M105.73,124.06c-1.16,0.31-2.34-0.38-2.65-1.53l-1.74-6.5c-0.31-1.16,0.38-2.34,1.53-2.65l0,0
			c1.15-0.31,2.34,0.37,2.65,1.53l1.74,6.5C107.57,122.56,106.89,123.75,105.73,124.06L105.73,124.06z"/>
	</g>
</g>
</svg>
