<?xml version="1.0" encoding="utf-8"?>
<!-- Generator: Adobe Illustrator 27.0.0, SVG Export Plug-In . SVG Version: 6.00 Build 0)  -->
<svg version="1.1" id="Layer_1" xmlns="http://www.w3.org/2000/svg" xmlns:xlink="http://www.w3.org/1999/xlink" x="0px" y="0px"
	 viewBox="0 0 150 181" style="enable-background:new 0 0 150 181;" xml:space="preserve">
<style type="text/css">
	.st0{fill:#37474F;}
	.st1{fill:#E7266A;}
	.st2{fill:#F7F8FC;}
	.st3{fill:#FFFFFF;}
	.st4{fill:#EBEFF2;}
	.st5{fill:#CDD5D8;}
	.st6{fill:#15C586;}
	.st7{fill:#17DC96;}
</style>
<g>
	<g>
		<path class="st0" d="M102.45,139.5l0.36,2.21c-1,0.16-1.46,2.27-1.87,4.13c-0.56,2.56-1.2,5.45-3.7,5.86
			c-2.5,0.4-4.02-2.14-5.36-4.39c-0.97-1.64-2.08-3.49-3.08-3.33c-1,0.16-1.46,2.27-1.87,4.12c-0.56,2.55-1.2,5.45-3.7,5.85
			c-2.5,0.4-4.02-2.14-5.35-4.39c-0.97-1.63-2.07-3.49-3.07-3.33c-1,0.16-1.46,2.27-1.87,4.12c-0.56,2.56-1.2,5.45-3.7,5.86
			c-2.5,0.4-4.01-2.15-5.35-4.39c-0.97-1.63-2.07-3.49-3.06-3.33l-0.36-2.21c2.5-0.4,4.01,2.15,5.35,4.39
			c0.97,1.63,2.07,3.49,3.06,3.33c1-0.16,1.46-2.27,1.87-4.12c0.56-2.56,1.2-5.45,3.7-5.86c2.5-0.4,4.02,2.14,5.35,4.39
			c0.97,1.63,2.07,3.49,3.07,3.33c1-0.16,1.46-2.26,1.87-4.12c0.56-2.56,1.2-5.45,3.7-5.86c2.5-0.4,4.02,2.14,5.36,4.39
			c0.97,1.64,2.08,3.49,3.08,3.33c1-0.16,1.46-2.27,1.87-4.12C99.3,142.8,99.94,139.91,102.45,139.5z"/>
	</g>
	<g>
		<g>
			<g>
				<g>
					<path class="st0" d="M7.76,114.25c0.61,0,1.11-0.49,1.11-1.11v-9.66c0-0.61-0.49-1.11-1.11-1.11c-0.61,0-1.11,0.49-1.11,1.11
						v9.66C6.65,113.76,7.15,114.25,7.76,114.25z"/>
				</g>
			</g>
			<g>
				<g>
					<path class="st0" d="M2.93,109.42h9.66c0.61,0,1.11-0.49,1.11-1.11c0-0.61-0.5-1.11-1.11-1.11H2.93c-0.61,0-1.11,0.5-1.11,1.11
						C1.83,108.93,2.32,109.42,2.93,109.42z"/>
				</g>
			</g>
		</g>
		<g>
			<g>
				<path class="st0" d="M86.66,166.76c0.61,0,1.11-0.49,1.11-1.11c0-0.61-0.49-1.11-1.11-1.11c-19,0-37.38-6.81-51.76-19.17
					c-0.47-0.4-1.16-0.35-1.56,0.12c-0.4,0.46-0.35,1.16,0.12,1.56C48.24,159.76,67.14,166.76,86.66,166.76z"/>
			</g>
		</g>
		<g>
			<g>
				<path class="st0" d="M86.66,180.79c0.61,0,1.11-0.5,1.11-1.11c0-0.61-0.49-1.11-1.11-1.11c-16.55,0-32.8-4.38-47.01-12.66
					c-0.52-0.31-1.2-0.13-1.51,0.4c-0.31,0.53-0.13,1.21,0.4,1.51C53.08,176.31,69.72,180.79,86.66,180.79z"/>
			</g>
		</g>
		<g>
			<g>
				<path class="st0" d="M25.04,157.97c0.31,0,0.62-0.13,0.84-0.38c0.4-0.46,0.35-1.16-0.12-1.56c-5.23-4.49-9.97-9.58-14.09-15.1
					c-0.37-0.49-1.06-0.59-1.55-0.22c-0.49,0.37-0.59,1.06-0.22,1.55c4.22,5.66,9.07,10.85,14.42,15.45
					C24.52,157.88,24.78,157.97,25.04,157.97z"/>
			</g>
		</g>
	</g>
	<g>
		<g>
			<g>
				<g>
					
						<ellipse transform="matrix(0.1587 -0.9873 0.9873 0.1587 -9.2845 124.1944)" class="st1" cx="68.23" cy="67.55" rx="67.78" ry="67.77"/>
				</g>
			</g>
		</g>
	</g>
	<g>
		<path class="st0" d="M97.7,172.26l-6.34,7.85l-3.63-9.41L97.7,172.26z M91.76,177.57l3.54-4.38l-5.56-0.87L91.76,177.57z"/>
	</g>
	<g>
		<path class="st0" d="M150,82.38l-11.26,13.95l-6.46-16.72L150,82.38z M139.45,91.82l6.28-7.79l-9.88-1.55L139.45,91.82z"/>
	</g>
	<path class="st0" d="M122.65,165.93c0,2.44-1.97,4.41-4.41,4.41c-2.43,0-4.41-1.98-4.41-4.41c0-2.43,1.97-4.41,4.41-4.41
		C120.68,161.52,122.65,163.5,122.65,165.93z"/>
	<g>
		<path class="st2" d="M109.83,32.03l0.21,1.52c-0.95,0.13-1.39,1.24-1.95,2.93c-0.57,1.73-1.22,3.69-3.19,3.96
			c-1.96,0.27-3.12-1.44-4.14-2.95c-0.99-1.47-1.72-2.42-2.67-2.29c-0.95,0.13-1.38,1.24-1.94,2.93c-0.57,1.73-1.22,3.69-3.18,3.96
			c-1.96,0.27-3.12-1.44-4.14-2.95c-0.99-1.47-1.71-2.42-2.66-2.29c-0.95,0.13-1.38,1.24-1.94,2.92c-0.57,1.73-1.22,3.69-3.18,3.96
			c-1.96,0.27-3.12-1.44-4.14-2.95c-0.99-1.47-1.71-2.42-2.66-2.29c-0.95,0.13-1.38,1.24-1.94,2.92c-0.57,1.73-1.22,3.69-3.18,3.96
			c-1.96,0.27-3.12-1.44-4.14-2.95C64,40.95,63.28,40,62.33,40.13c-0.95,0.13-1.38,1.24-1.94,2.92c-0.57,1.73-1.22,3.69-3.18,3.96
			c-1.96,0.27-3.12-1.44-4.13-2.95c-0.99-1.47-1.71-2.42-2.66-2.29c-0.95,0.13-1.38,1.24-1.94,2.92c-0.57,1.73-1.22,3.69-3.18,3.96
			c-1.96,0.27-3.11-1.44-4.13-2.95c-0.99-1.47-1.71-2.42-2.66-2.29c-0.95,0.13-1.38,1.24-1.94,2.92c-0.57,1.73-1.22,3.69-3.18,3.96
			c-1.96,0.27-3.11-1.44-4.13-2.95c-0.99-1.47-1.71-2.42-2.66-2.29l-0.21-1.52c1.96-0.27,3.11,1.44,4.13,2.95
			c0.99,1.47,1.71,2.42,2.65,2.29c0.95-0.13,1.38-1.24,1.94-2.92c0.57-1.73,1.22-3.69,3.18-3.96c1.96-0.27,3.11,1.44,4.13,2.95
			c0.99,1.47,1.71,2.42,2.66,2.29c0.95-0.13,1.38-1.24,1.94-2.92c0.57-1.73,1.22-3.69,3.18-3.96c1.96-0.27,3.11,1.44,4.13,2.95
			c0.99,1.47,1.71,2.42,2.66,2.29c0.95-0.13,1.38-1.24,1.94-2.92c0.57-1.73,1.22-3.69,3.18-3.96c1.96-0.27,3.12,1.44,4.14,2.95
			c0.99,1.47,1.71,2.42,2.66,2.29c0.95-0.13,1.38-1.24,1.94-2.93c0.57-1.73,1.22-3.69,3.18-3.96c1.96-0.27,3.12,1.44,4.14,2.95
			c0.99,1.47,1.71,2.42,2.66,2.29c0.95-0.13,1.38-1.24,1.94-2.92c0.57-1.73,1.22-3.69,3.18-3.96c1.96-0.27,3.12,1.44,4.14,2.95
			c0.99,1.47,1.71,2.42,2.66,2.29c0.95-0.13,1.38-1.24,1.94-2.92c0.57-1.73,1.22-3.69,3.18-3.96c1.96-0.27,3.12,1.44,4.14,2.95
			c0.99,1.47,1.72,2.42,2.67,2.29c0.95-0.13,1.39-1.24,1.95-2.93C107.21,34.26,107.86,32.3,109.83,32.03z"/>
	</g>
	<g>
		<g>
			<g>
				<rect x="12.31" y="47.25" class="st3" width="120.18" height="90.28"/>
				<rect x="12.31" y="47.25" class="st4" width="120.18" height="8.62"/>
				<rect x="56.01" y="49.41" class="st3" width="71.3" height="4.31"/>
				<path class="st0" d="M18.63,51.56c0,0.95-0.77,1.73-1.73,1.73c-0.95,0-1.72-0.77-1.72-1.73c0-0.95,0.77-1.72,1.72-1.72
					C17.86,49.84,18.63,50.61,18.63,51.56z"/>
				<path class="st0" d="M24.1,51.56c0,0.95-0.77,1.73-1.73,1.73c-0.95,0-1.72-0.77-1.72-1.73c0-0.95,0.77-1.72,1.72-1.72
					C23.32,49.84,24.1,50.61,24.1,51.56z"/>
				<path class="st0" d="M29.56,51.56c0,0.95-0.77,1.73-1.73,1.73c-0.95,0-1.73-0.77-1.73-1.73c0-0.95,0.77-1.72,1.73-1.72
					C28.79,49.84,29.56,50.61,29.56,51.56z"/>
			</g>
			<g>
				<rect x="23.15" y="62.18" class="st2" width="99.17" height="69.7"/>
			</g>
			<g>
				<path class="st0" d="M41.81,72.93c0,4.03-3.27,7.29-7.29,7.29c-4.03,0-7.29-3.26-7.29-7.29c0-4.03,3.26-7.29,7.29-7.29
					C38.55,65.64,41.81,68.91,41.81,72.93z"/>
				<polygon class="st0" points="29.13,97.16 34.52,97.16 39.91,97.16 37.79,74.11 31.25,74.11 				"/>
			</g>
			<g>
				<rect x="51.06" y="89.69" class="st5" width="40.92" height="3.15"/>
				<rect x="51.06" y="104.26" class="st5" width="11.54" height="1.29"/>
				<rect x="51.06" y="110.42" class="st5" width="55.49" height="1.29"/>
				<rect x="51.06" y="113.48" class="st5" width="57.36" height="1.29"/>
				<rect x="51.06" y="116.55" class="st5" width="18.69" height="1.29"/>
				<rect x="51.06" y="98.13" class="st5" width="57.36" height="1.29"/>
				<rect x="51.06" y="101.19" class="st5" width="44.65" height="1.29"/>
			</g>
			<g>
				<g>
					<g>
						<g>
							<rect x="66.75" y="66.22" class="st1" width="50.92" height="15.25"/>
						</g>
					</g>
				</g>
				<g>
					<path class="st3" d="M73.95,77.57h3.13v1.42h-4.98v-9.31h1.86V77.57z"/>
					<path class="st3" d="M85.31,70.15c0.71,0.4,1.27,0.97,1.67,1.69c0.41,0.73,0.61,1.55,0.61,2.46c0,0.91-0.2,1.74-0.61,2.47
						c-0.41,0.73-0.97,1.3-1.67,1.7c-0.71,0.4-1.5,0.61-2.37,0.61c-0.87,0-1.66-0.2-2.37-0.61c-0.71-0.4-1.27-0.97-1.67-1.7
						c-0.41-0.73-0.61-1.55-0.61-2.47c0-0.91,0.2-1.73,0.61-2.46c0.41-0.73,0.97-1.29,1.67-1.69c0.71-0.4,1.5-0.61,2.37-0.61
						C83.81,69.55,84.6,69.75,85.31,70.15z M81.51,71.63c-0.41,0.25-0.74,0.6-0.97,1.06c-0.23,0.46-0.35,1-0.35,1.62
						c0,0.61,0.12,1.15,0.35,1.62c0.23,0.46,0.56,0.82,0.97,1.06c0.41,0.25,0.89,0.37,1.44,0.37c0.54,0,1.02-0.12,1.44-0.37
						c0.41-0.25,0.74-0.6,0.97-1.06c0.23-0.46,0.35-1,0.35-1.62c0-0.62-0.12-1.15-0.35-1.62c-0.23-0.46-0.56-0.82-0.97-1.06
						c-0.41-0.25-0.89-0.37-1.44-0.37C82.4,71.26,81.92,71.39,81.51,71.63z"/>
					<path class="st3" d="M96.52,70.43c0.75,0.56,1.23,1.31,1.44,2.26h-1.95c-0.18-0.42-0.48-0.76-0.88-1.01
						c-0.4-0.25-0.87-0.38-1.42-0.38c-0.54,0-1.01,0.12-1.42,0.37s-0.73,0.6-0.96,1.06s-0.34,0.99-0.34,1.61
						c0,0.98,0.26,1.74,0.78,2.28s1.24,0.82,2.14,0.82c0.67,0,1.24-0.2,1.72-0.59c0.48-0.4,0.79-0.94,0.93-1.65h-3.15v-1.33h4.71
						v1.79c-0.13,0.62-0.39,1.18-0.77,1.7c-0.38,0.52-0.88,0.93-1.5,1.25c-0.62,0.31-1.33,0.47-2.13,0.47c-0.92,0-1.72-0.2-2.42-0.6
						c-0.7-0.4-1.24-0.96-1.62-1.67s-0.57-1.54-0.57-2.46c0-0.92,0.19-1.74,0.57-2.46s0.92-1.28,1.62-1.68
						c0.69-0.4,1.5-0.61,2.41-0.61C94.84,69.59,95.78,69.87,96.52,70.43z"/>
					<path class="st3" d="M101.77,69.68v9.31h-1.86v-9.31H101.77z"/>
					<path class="st3" d="M111.74,78.99h-1.86l-4.17-6.33v6.33h-1.86v-9.31h1.86l4.17,6.38v-6.38h1.86V78.99z"/>
				</g>
			</g>
		</g>
	</g>
	<g>
		
			<rect x="55.8" y="99.28" transform="matrix(0.553 -0.8332 0.8332 0.553 -55.9488 102.8973)" class="st6" width="24.26" height="8.63"/>
		
			<rect x="73.77" y="71.04" transform="matrix(0.553 -0.8332 0.8332 0.553 -49.2102 110.1722)" class="st6" width="8.62" height="59.82"/>
		
			<rect x="52.94" y="87.21" transform="matrix(0.553 -0.8332 0.8332 0.553 -53.151 94.2025)" class="st6" width="16.58" height="18.87"/>
		<path class="st6" d="M135.95,109.28l-15.72-10.43c-3.47-2.3-8.15-1.36-10.46,2.11l-19.38,29.19c-2.3,3.47-1.36,8.16,2.11,10.46
			l15.72,10.43c3.47,2.31,8.16,1.36,10.46-2.11l19.38-29.19C140.37,116.27,139.42,111.59,135.95,109.28z M112.09,143.27l-13.92-9.24
			l18.18-27.39l13.92,9.24L112.09,143.27z"/>
		<path class="st7" d="M93.4,137.32c-2.48-1.64-3.15-5-1.51-7.47l19.38-29.19c1.64-2.48,5-3.15,7.47-1.51l15.72,10.43
			c2.48,1.64,3.16,5,1.51,7.47l-19.38,29.19c-1.64,2.47-5,3.15-7.47,1.51L93.4,137.32z M94.88,133.13l17.51,11.63l20.57-30.99
			l-17.51-11.63L94.88,133.13z"/>
		
			<rect x="43.67" y="91.23" transform="matrix(0.553 -0.8332 0.8332 0.553 -54.6624 89.196)" class="st6" width="24.26" height="8.62"/>
		
			<rect x="43.81" y="95.79" transform="matrix(0.553 -0.8332 0.8332 0.553 -58.5312 86.7859)" class="st7" width="15.63" height="4.31"/>
		
			<rect x="55.93" y="103.84" transform="matrix(0.553 -0.8332 0.8332 0.553 -59.8176 100.4867)" class="st7" width="15.63" height="4.31"/>
		
			<rect x="77.12" y="69.25" transform="matrix(0.553 -0.8332 0.8332 0.553 -47.1798 110.3629)" class="st7" width="4.31" height="59.82"/>
	</g>
	<g>
		<path class="st3" d="M27.49,20.44l11.05,0.87l-0.87,11.05l-11.05-0.87L27.49,20.44z M37.2,22.44l-8.58-0.67l-0.67,8.58l8.58,0.67
			L37.2,22.44z"/>
	</g>
	<g>
		<g>
			
				<rect x="47.02" y="28.63" transform="matrix(0.0779 -0.997 0.997 0.0779 14.1031 75.0028)" class="st3" width="1.15" height="2.49"/>
		</g>
		<g>
			
				<rect x="53.35" y="29.13" transform="matrix(0.0782 -0.9969 0.9969 0.0782 19.4262 81.7597)" class="st3" width="1.15" height="2.49"/>
		</g>
		<g>
			
				<rect x="49.76" y="26.39" transform="matrix(0.0782 -0.9969 0.9969 0.0782 20.1424 75.7053)" class="st3" width="2.49" height="1.15"/>
		</g>
		<g>
			
				<rect x="49.27" y="32.72" transform="matrix(0.0782 -0.9969 0.9969 0.0782 13.3724 81.0463)" class="st3" width="2.49" height="1.15"/>
		</g>
	</g>
</g>
</svg>
