<?xml version="1.0" encoding="utf-8"?>
<!-- Generator: Adobe Illustrator 27.0.0, SVG Export Plug-In . SVG Version: 6.00 Build 0)  -->
<svg version="1.1" id="Layer_1" xmlns="http://www.w3.org/2000/svg" xmlns:xlink="http://www.w3.org/1999/xlink" x="0px" y="0px"
	 viewBox="0 0 150 181" style="enable-background:new 0 0 150 181;" xml:space="preserve">
<style type="text/css">
	.st0{fill:#37474F;}
	.st1{fill:#E7266A;}
	.st2{fill:#FF876C;}
	.st3{fill:#FFFFFF;}
	.st4{fill:#F7F8FC;}
	.st5{fill:#CDD5D8;}
	.st6{fill:#E5E8EC;}
	.st7{fill:#17DC96;}
	.st8{fill:#324A5E;}
	.st9{fill:#2B3B4E;}
	.st10{fill:#EBEFF2;}
</style>
<g>
	<g>
		<path class="st0" d="M105.92,156.65l0.35,2.19c-0.99,0.16-1.45,2.25-1.85,4.08c-0.56,2.53-1.19,5.4-3.67,5.8
			c-2.48,0.4-3.98-2.12-5.3-4.35c-0.96-1.62-2.06-3.45-3.04-3.29c-0.99,0.16-1.44,2.24-1.85,4.08c-0.55,2.53-1.18,5.4-3.66,5.79
			c-2.47,0.4-3.97-2.12-5.3-4.35c-0.96-1.62-2.05-3.45-3.04-3.29c-0.99,0.16-1.44,2.24-1.85,4.08c-0.55,2.53-1.18,5.4-3.66,5.8
			c-2.47,0.4-3.97-2.12-5.29-4.35c-0.96-1.62-2.05-3.45-3.03-3.29l-0.35-2.19c2.47-0.4,3.97,2.12,5.29,4.35
			c0.96,1.62,2.05,3.45,3.03,3.29c0.99-0.16,1.44-2.24,1.85-4.08c0.55-2.53,1.18-5.4,3.66-5.8c2.47-0.4,3.97,2.12,5.3,4.35
			c0.96,1.62,2.05,3.45,3.04,3.29c0.99-0.16,1.44-2.24,1.85-4.08c0.55-2.53,1.18-5.4,3.66-5.8c2.48-0.4,3.98,2.12,5.3,4.35
			c0.96,1.62,2.06,3.45,3.04,3.29c0.99-0.16,1.45-2.24,1.85-4.08C102.81,159.91,103.44,157.05,105.92,156.65z"/>
	</g>
	<g>
		<g>
			<g>
				<g>
					
						<ellipse transform="matrix(0.1587 -0.9873 0.9873 0.1587 -9.3731 123.7558)" class="st1" cx="67.93" cy="67.38" rx="66.98" ry="66.98"/>
				</g>
			</g>
		</g>
		<g>
			<g>
				<g>
					
						<rect x="75.01" y="88.07" transform="matrix(0.7071 -0.7071 0.7071 0.7071 -41.0703 79.6566)" class="st2" width="1.23" height="2.67"/>
				</g>
				<g>
					
						<rect x="70.21" y="83.28" transform="matrix(0.7068 -0.7075 0.7075 0.7068 -39.0883 74.9141)" class="st2" width="1.23" height="2.67"/>
				</g>
				<g>
					
						<rect x="69.49" y="88.79" transform="matrix(0.7071 -0.7071 0.7071 0.7071 -42.4755 76.2655)" class="st2" width="2.67" height="1.23"/>
				</g>
				<g>
					
						<rect x="74.29" y="84" transform="matrix(0.7071 -0.7071 0.7071 0.7071 -37.6788 78.2518)" class="st2" width="2.67" height="1.23"/>
				</g>
			</g>
			<g>
				<path class="st3" d="M118.76,85.93L111,78.17l7.76-7.75l7.76,7.75L118.76,85.93z M112.74,78.17l6.02,6.02l6.02-6.02l-6.02-6.02
					L112.74,78.17z"/>
			</g>
			<g>
				<g>
					
						<rect x="91.35" y="178.19" transform="matrix(0.7069 -0.7074 0.7074 0.7069 -100.0582 117.7101)" class="st0" width="1.27" height="2.76"/>
				</g>
				<g>
					
						<rect x="86.38" y="173.22" transform="matrix(0.7071 -0.7071 0.7071 0.7071 -97.9748 112.6638)" class="st0" width="1.27" height="2.76"/>
				</g>
				<g>
					
						<rect x="85.64" y="178.94" transform="matrix(0.7071 -0.7071 0.7071 0.7071 -101.4922 114.1259)" class="st0" width="2.76" height="1.27"/>
				</g>
				<g>
					
						<rect x="90.61" y="173.97" transform="matrix(0.7071 -0.7071 0.7071 0.7071 -96.5206 116.1852)" class="st0" width="2.76" height="1.27"/>
				</g>
			</g>
		</g>
	</g>
	<g>
		<path class="st0" d="M58.84,161.15l-8.92,11.06l-5.12-13.26L58.84,161.15z M50.48,168.63l4.98-6.17l-7.83-1.23L50.48,168.63z"/>
	</g>
	<g>
		<g>
			
				<rect x="19.9" y="45.85" transform="matrix(0.2997 -0.954 0.954 0.2997 -29.5778 52.463)" class="st4" width="2.1" height="1.05"/>
		</g>
		<g>
			
				<rect x="18.29" y="50.96" transform="matrix(0.2997 -0.954 0.954 0.2997 -35.5681 54.5023)" class="st4" width="2.1" height="1.05"/>
		</g>
		<g>
			
				<rect x="22.17" y="48.68" transform="matrix(0.2999 -0.954 0.954 0.2999 -31.5523 56.466)" class="st4" width="1.05" height="2.1"/>
		</g>
		<g>
			
				<rect x="17.07" y="47.08" transform="matrix(0.2994 -0.9541 0.9541 0.2994 -33.5944 50.5042)" class="st4" width="1.05" height="2.1"/>
		</g>
	</g>
	<g>
		<g>
			
				<rect x="34.69" y="24.39" transform="matrix(0.2998 -0.954 0.954 0.2998 1.3322 51.9799)" class="st4" width="2.77" height="1.38"/>
		</g>
		<g>
			
				<rect x="32.58" y="31.12" transform="matrix(0.2997 -0.954 0.954 0.2997 -6.561 54.6765)" class="st4" width="2.77" height="1.38"/>
		</g>
		<g>
			<rect x="37.69" y="28.12" transform="matrix(0.3 -0.9539 0.9539 0.3 -1.275 57.2649)" class="st4" width="1.38" height="2.77"/>
		</g>
		<g>
			
				<rect x="30.97" y="26" transform="matrix(0.3001 -0.9539 0.9539 0.3001 -3.9678 49.3691)" class="st4" width="1.38" height="2.77"/>
		</g>
	</g>
	<g>
		<path class="st3" d="M118.85,150.96c-5.51,0-10-4.49-10-10c0-5.51,4.49-10,10-10c5.51,0,10,4.49,10,10
			C128.85,146.48,124.37,150.96,118.85,150.96z M118.85,133.2c-4.28,0-7.76,3.48-7.76,7.76s3.48,7.76,7.76,7.76
			c4.28,0,7.77-3.48,7.77-7.76S123.13,133.2,118.85,133.2z"/>
	</g>
	<g>
		<g>
			<g>
				<g>
					<g>
						<g>
							<polygon class="st5" points="28.67,154.2 22.95,150.28 22.28,106.19 41.85,62.01 111.62,52.73 115.05,78.56 119.59,112.64 
								123.44,141.59 							"/>
							<polygon class="st6" points="28.67,154.2 22.95,150.28 112.46,133.96 123.44,141.59 							"/>
							<polygon class="st5" points="114.47,74.17 111.62,52.72 105.9,48.81 108.75,70.26 							"/>
							<polygon class="st4" points="22.95,150.28 19.1,121.33 11.13,61.42 36.14,58.1 105.9,48.81 109.34,74.65 113.87,108.72 
								117.72,137.67 							"/>
							
								<rect x="12.14" y="55.02" transform="matrix(0.9913 -0.1319 0.1319 0.9913 -8.1603 8.4813)" class="st3" width="95.61" height="21.64"/>
							<g>
								<path class="st0" d="M31.92,71.73c0.32,2.4,2.52,4.08,4.93,3.76c2.39-0.32,4.08-2.52,3.76-4.91
									c-0.32-2.4-2.52-4.09-4.91-3.77C33.28,67.13,31.6,69.33,31.92,71.73z"/>
								<path class="st6" d="M35.47,69.09l-1.41,0.19c-1.41,0.19-2.7-0.81-2.89-2.22l-1.16-8.68c-0.19-1.41,0.8-2.7,2.21-2.89
									l1.41-0.19c1.32-0.18,2.5,0.7,2.8,1.96l4.12-0.55c-0.61-3.52-3.9-5.97-7.46-5.5l-4.6,0.61c-3.66,0.49-6.24,3.86-5.75,7.52
									l1.16,8.68c0.49,3.67,3.86,6.25,7.52,5.76l4.6-0.61c1.13-0.15,1.91-1.19,1.76-2.32C37.63,69.73,36.59,68.94,35.47,69.09z"/>
								<path class="st5" d="M33.26,51.21c-3.56,0.57-6.07,3.87-5.59,7.48l1.16,8.68c0.48,3.59,3.72,6.11,7.29,5.76
									c1.06-0.2,1.8-1.18,1.65-2.28c-0.15-1.13-1.18-1.92-2.31-1.77l-1.41,0.19c-1.41,0.19-2.7-0.81-2.89-2.22l-1.16-8.68
									c-0.19-1.41,0.8-2.7,2.21-2.89l1.41-0.19c1.32-0.18,2.5,0.7,2.8,1.96l4.12-0.55C39.95,53.25,36.77,50.84,33.26,51.21z"/>
							</g>
							<g>
								<path class="st0" d="M80.44,65.28c0.32,2.4,2.52,4.08,4.92,3.76c2.4-0.32,4.09-2.52,3.77-4.92
									c-0.32-2.4-2.53-4.09-4.93-3.77C81.81,60.67,80.12,62.87,80.44,65.28z"/>
								<path class="st6" d="M83.99,62.64l-1.41,0.19c-1.41,0.19-2.71-0.81-2.9-2.22l-1.16-8.68c-0.19-1.41,0.81-2.7,2.22-2.89
									l1.41-0.19c1.32-0.18,2.5,0.7,2.81,1.96l4.11-0.55c-0.6-3.53-3.89-5.98-7.46-5.5l-4.6,0.61c-3.66,0.49-6.24,3.86-5.76,7.52
									l1.16,8.68c0.49,3.67,3.86,6.25,7.52,5.76l4.6-0.61c1.12-0.15,1.91-1.19,1.76-2.32C86.15,63.28,85.12,62.49,83.99,62.64z"/>
								<path class="st5" d="M81.79,44.76c-3.57,0.57-6.07,3.87-5.59,7.48l1.16,8.68c0.48,3.59,3.72,6.11,7.29,5.76
									c1.07-0.2,1.8-1.18,1.66-2.28c-0.15-1.13-1.18-1.92-2.31-1.77l-1.41,0.19c-1.41,0.19-2.71-0.81-2.9-2.22l-1.16-8.68
									c-0.19-1.41,0.81-2.7,2.22-2.89l1.41-0.19c1.32-0.18,2.5,0.7,2.81,1.96l4.11-0.55C88.48,46.79,85.29,44.38,81.79,44.76z"/>
							</g>
						</g>
					</g>
				</g>
				<g>
					<g>
						
							<rect x="21.1" y="89.94" transform="matrix(0.9913 -0.1319 0.1319 0.9913 -12.1685 4.2191)" class="st6" width="9.33" height="8.04"/>
					</g>
					<g>
						
							<rect x="33.18" y="88.33" transform="matrix(0.9913 -0.1319 0.1319 0.9913 -11.8509 5.7984)" class="st6" width="9.34" height="8.04"/>
					</g>
					<g>
						
							<rect x="45.26" y="86.73" transform="matrix(0.9913 -0.1319 0.1319 0.9913 -11.5333 7.3778)" class="st5" width="9.33" height="8.04"/>
					</g>
					<g>
						
							<rect x="57.34" y="85.12" transform="matrix(0.9913 -0.1319 0.1319 0.9913 -11.2157 8.9572)" class="st5" width="9.33" height="8.04"/>
					</g>
					<g>
						
							<rect x="69.42" y="83.51" transform="matrix(0.9913 -0.1319 0.1319 0.9913 -10.8982 10.5366)" class="st5" width="9.33" height="8.04"/>
					</g>
					<g>
						
							<rect x="81.5" y="81.9" transform="matrix(0.9913 -0.1319 0.1319 0.9913 -10.5806 12.1161)" class="st5" width="9.34" height="8.04"/>
					</g>
					<g>
						
							<rect x="93.58" y="80.3" transform="matrix(0.9913 -0.1319 0.1319 0.9913 -10.263 13.6953)" class="st5" width="9.34" height="8.04"/>
					</g>
				</g>
				<g>
					<g>
						
							<rect x="22.54" y="100.79" transform="matrix(0.9913 -0.1319 0.1319 0.9913 -13.5868 4.5043)" class="st5" width="9.33" height="8.04"/>
					</g>
					<g>
						
							<rect x="34.62" y="99.19" transform="matrix(0.9913 -0.1319 0.1319 0.9913 -13.2693 6.0836)" class="st5" width="9.34" height="8.04"/>
					</g>
					<g>
						
							<rect x="46.7" y="97.58" transform="matrix(0.9913 -0.1319 0.1319 0.9913 -12.9517 7.663)" class="st5" width="9.33" height="8.04"/>
					</g>
					<g>
						
							<rect x="58.78" y="95.97" transform="matrix(0.9913 -0.1319 0.1319 0.9913 -12.6341 9.2424)" class="st5" width="9.33" height="8.04"/>
					</g>
					<g>
						
							<rect x="70.86" y="94.36" transform="matrix(0.9913 -0.1319 0.1319 0.9913 -12.3165 10.8218)" class="st5" width="9.33" height="8.04"/>
					</g>
					<g>
						
							<rect x="82.94" y="92.76" transform="matrix(0.9913 -0.1319 0.1319 0.9913 -11.999 12.4013)" class="st5" width="9.34" height="8.04"/>
					</g>
					<g>
						
							<rect x="95.02" y="91.15" transform="matrix(0.9913 -0.1319 0.1319 0.9913 -11.6814 13.9805)" class="st5" width="9.34" height="8.04"/>
					</g>
				</g>
				<g>
					<g>
						
							<rect x="23.98" y="111.64" transform="matrix(0.9913 -0.1319 0.1319 0.9913 -15.0051 4.7894)" class="st5" width="9.33" height="8.04"/>
					</g>
					<g>
						
							<rect x="36.06" y="110.03" transform="matrix(0.9913 -0.1319 0.1319 0.9913 -14.6875 6.3688)" class="st5" width="9.34" height="8.04"/>
					</g>
					<g>
						
							<rect x="48.14" y="108.42" transform="matrix(0.9913 -0.1319 0.1319 0.9913 -14.37 7.9482)" class="st5" width="9.33" height="8.04"/>
					</g>
					<g>
						
							<rect x="60.23" y="106.82" transform="matrix(0.9913 -0.1319 0.1319 0.9913 -14.0524 9.5276)" class="st1" width="9.33" height="8.04"/>
					</g>
					<g>
						
							<rect x="72.31" y="105.21" transform="matrix(0.9913 -0.1319 0.1319 0.9913 -13.7348 11.107)" class="st5" width="9.33" height="8.04"/>
					</g>
					<g>
						
							<rect x="84.39" y="103.6" transform="matrix(0.9913 -0.1319 0.1319 0.9913 -13.4172 12.6865)" class="st5" width="9.34" height="8.04"/>
					</g>
					<g>
						
							<rect x="96.47" y="102" transform="matrix(0.9913 -0.1319 0.1319 0.9913 -13.0997 14.2657)" class="st5" width="9.34" height="8.04"/>
					</g>
				</g>
				<g>
					<g>
						
							<rect x="25.43" y="122.49" transform="matrix(0.9913 -0.1319 0.1319 0.9913 -16.4232 5.0746)" class="st1" width="9.33" height="8.04"/>
					</g>
					<g>
						
							<rect x="37.51" y="120.88" transform="matrix(0.9913 -0.1319 0.1319 0.9913 -16.1056 6.654)" class="st5" width="9.34" height="8.04"/>
					</g>
					<g>
						
							<rect x="49.59" y="119.27" transform="matrix(0.9913 -0.1319 0.1319 0.9913 -15.788 8.2333)" class="st5" width="9.33" height="8.04"/>
					</g>
					<g>
						
							<rect x="61.67" y="117.66" transform="matrix(0.9913 -0.1319 0.1319 0.9913 -15.4705 9.8128)" class="st5" width="9.33" height="8.04"/>
					</g>
					<g>
						
							<rect x="73.75" y="116.06" transform="matrix(0.9913 -0.1319 0.1319 0.9913 -15.1529 11.3922)" class="st5" width="9.33" height="8.04"/>
					</g>
					<g>
						
							<rect x="85.83" y="114.45" transform="matrix(0.9913 -0.1319 0.1319 0.9913 -14.8353 12.9716)" class="st5" width="9.34" height="8.04"/>
					</g>
					<g>
						
							<rect x="97.91" y="112.84" transform="matrix(0.9913 -0.1319 0.1319 0.9913 -14.5178 14.5508)" class="st5" width="9.34" height="8.04"/>
					</g>
				</g>
				<g>
					<g>
						
							<rect x="26.87" y="133.34" transform="matrix(0.9913 -0.1319 0.1319 0.9913 -17.8414 5.3597)" class="st5" width="9.33" height="8.03"/>
					</g>
					<g>
						
							<rect x="38.95" y="131.73" transform="matrix(0.9913 -0.1319 0.1319 0.9913 -17.5238 6.9391)" class="st5" width="9.34" height="8.03"/>
					</g>
					<g>
						
							<rect x="51.03" y="130.12" transform="matrix(0.9913 -0.1319 0.1319 0.9913 -17.2062 8.5185)" class="st5" width="9.33" height="8.03"/>
					</g>
					<g>
						
							<rect x="63.11" y="128.51" transform="matrix(0.9913 -0.1319 0.1319 0.9913 -16.8887 10.0979)" class="st5" width="9.33" height="8.03"/>
					</g>
					<g>
						
							<rect x="75.19" y="126.91" transform="matrix(0.9913 -0.1319 0.1319 0.9913 -16.5711 11.6773)" class="st6" width="9.33" height="8.03"/>
					</g>
					<g>
						
							<rect x="87.27" y="125.3" transform="matrix(0.9913 -0.1319 0.1319 0.9913 -16.2535 13.2568)" class="st6" width="9.34" height="8.03"/>
					</g>
					<g>
						
							<rect x="99.35" y="123.69" transform="matrix(0.9913 -0.1319 0.1319 0.9913 -15.936 14.836)" class="st6" width="9.34" height="8.03"/>
					</g>
				</g>
			</g>
		</g>
		<g>
			<g>
				<g>
					<g>
						
							<ellipse transform="matrix(0.7071 -0.7071 0.7071 0.7071 -61.3278 46.8751)" class="st7" cx="25.92" cy="97.47" rx="13.06" ry="13.06"/>
					</g>
				</g>
			</g>
			<g>
				<g>
					<g>
						<path class="st3" d="M30.82,90.68l-6.78,6.78l-3.03-3.03c-0.35-0.35-0.92-0.35-1.27,0l-2.44,2.44c-0.35,0.35-0.35,0.92,0,1.27
							l6.74,6.74l0.09-0.09l3.63-3.63l6.78-6.78c0.35-0.35,0.35-0.92,0-1.27l-2.44-2.44C31.75,90.33,31.17,90.33,30.82,90.68z"/>
					</g>
				</g>
			</g>
		</g>
	</g>
	<g>
		<g>
			<g>
				<path class="st0" d="M3.98,111.49c-0.17,0.13-0.38,0.21-0.61,0.22c-0.6,0.03-1.11-0.44-1.14-1.05
					c-0.12-2.81-0.08-5.66,0.12-8.48c0.04-0.61,0.56-1.06,1.17-1.02c0.6,0.04,1.06,0.56,1.02,1.17c-0.19,2.74-0.23,5.51-0.11,8.24
					C4.43,110.94,4.26,111.28,3.98,111.49z"/>
			</g>
		</g>
		<path class="st0" d="M19.17,151.91c-7.05-9.42-11.66-20.03-13.69-31.53c-0.1-0.59-0.67-0.99-1.27-0.89
			c-0.59,0.11-0.99,0.67-0.89,1.27c1.87,10.61,5.89,20.47,11.92,29.38c0.03,0.08,0.05,0.17,0.1,0.24
			c5.8,8.37,13.07,15.38,21.61,20.85c0.4,0.25,0.89,0.22,1.25-0.04c0.1-0.08,0.19-0.17,0.27-0.29c0.33-0.51,0.18-1.19-0.33-1.51
			C30.81,164.69,24.45,158.82,19.17,151.91C19.17,151.91,19.17,151.91,19.17,151.91z"/>
	</g>
	<g>
		<path class="st4" d="M132.39,23.95l0.21,1.5c-0.94,0.13-1.38,1.23-1.93,2.9c-0.57,1.71-1.22,3.66-3.16,3.93s-3.1-1.43-4.11-2.92
			c-0.99-1.46-1.7-2.4-2.65-2.27c-0.94,0.13-1.37,1.23-1.93,2.9c-0.57,1.71-1.21,3.66-3.16,3.93c-1.95,0.27-3.09-1.43-4.11-2.93
			c-0.98-1.46-1.7-2.4-2.64-2.27c-0.94,0.13-1.37,1.23-1.93,2.9c-0.57,1.72-1.21,3.66-3.16,3.93c-1.95,0.27-3.09-1.43-4.11-2.93
			c-0.98-1.46-1.7-2.4-2.64-2.27c-0.94,0.13-1.37,1.23-1.93,2.9c-0.57,1.72-1.21,3.66-3.16,3.93c-1.95,0.27-3.09-1.43-4.11-2.93
			c-0.98-1.46-1.7-2.4-2.64-2.27c-0.94,0.13-1.37,1.23-1.93,2.9c-0.57,1.72-1.21,3.66-3.16,3.93c-1.95,0.27-3.09-1.43-4.1-2.93
			c-0.98-1.46-1.7-2.4-2.64-2.27c-0.94,0.13-1.37,1.23-1.93,2.9c-0.57,1.72-1.21,3.66-3.16,3.93c-1.95,0.27-3.09-1.43-4.1-2.93
			c-0.98-1.46-1.7-2.4-2.64-2.27c-0.94,0.13-1.37,1.23-1.92,2.9c-0.57,1.72-1.21,3.66-3.16,3.93c-1.94,0.27-3.09-1.43-4.1-2.93
			c-0.98-1.46-1.7-2.4-2.64-2.27l-0.21-1.5c1.94-0.27,3.09,1.43,4.1,2.93c0.98,1.46,1.7,2.4,2.63,2.27c0.94-0.13,1.37-1.23,1.92-2.9
			c0.57-1.72,1.21-3.66,3.16-3.93c1.95-0.27,3.09,1.43,4.1,2.93c0.98,1.46,1.7,2.4,2.64,2.27c0.94-0.13,1.37-1.23,1.93-2.9
			c0.57-1.72,1.21-3.66,3.16-3.93c1.95-0.27,3.09,1.43,4.1,2.93c0.98,1.46,1.7,2.4,2.64,2.27c0.94-0.13,1.37-1.23,1.92-2.9
			c0.57-1.72,1.21-3.66,3.16-3.93c1.95-0.27,3.09,1.43,4.11,2.92c0.98,1.46,1.7,2.4,2.64,2.27c0.94-0.13,1.37-1.23,1.93-2.9
			c0.57-1.71,1.21-3.66,3.16-3.93c1.95-0.27,3.09,1.43,4.11,2.93c0.98,1.46,1.7,2.4,2.64,2.27c0.94-0.13,1.37-1.23,1.93-2.9
			c0.57-1.72,1.21-3.66,3.16-3.93c1.95-0.27,3.09,1.43,4.11,2.92c0.98,1.46,1.7,2.4,2.64,2.27c0.94-0.13,1.37-1.23,1.93-2.9
			c0.57-1.72,1.21-3.66,3.16-3.93c1.95-0.27,3.1,1.43,4.11,2.92c0.99,1.46,1.7,2.4,2.65,2.27c0.94-0.13,1.38-1.23,1.93-2.9
			C129.8,26.16,130.44,24.22,132.39,23.95z"/>
	</g>
	<g>
		<g>
			<circle class="st0" cx="113.97" cy="125.38" r="36.03"/>
		</g>
		<g>
			
				<ellipse transform="matrix(0.7071 -0.7071 0.7071 0.7071 -55.2731 117.3117)" class="st3" cx="113.97" cy="125.38" rx="29.33" ry="29.33"/>
		</g>
		<g>
			<path class="st8" d="M114.63,100.25v-1.94c0-0.36-0.3-0.66-0.66-0.66l0,0c-0.36,0-0.66,0.3-0.66,0.66v1.94
				c0,0.36,0.3,0.66,0.66,0.66l0,0C114.34,100.91,114.63,100.62,114.63,100.25z"/>
		</g>
		<g>
			<path class="st8" d="M114.63,152.44v-1.94c0-0.36-0.3-0.66-0.66-0.66l0,0c-0.36,0-0.66,0.3-0.66,0.66v1.94
				c0,0.36,0.3,0.66,0.66,0.66l0,0C114.34,153.1,114.63,152.81,114.63,152.44z"/>
		</g>
		<g>
			<path class="st8" d="M101.98,103.29l-0.97-1.68c-0.18-0.32-0.59-0.42-0.9-0.24l0,0c-0.32,0.18-0.42,0.59-0.24,0.9l0.97,1.68
				c0.18,0.32,0.59,0.42,0.9,0.24l0,0C102.05,104.01,102.16,103.6,101.98,103.29z"/>
		</g>
		<g>
			<path class="st8" d="M128.08,148.48l-0.97-1.68c-0.18-0.32-0.59-0.42-0.9-0.24l0,0c-0.32,0.18-0.42,0.59-0.24,0.9l0.97,1.68
				c0.18,0.32,0.59,0.42,0.9,0.24l0,0C128.15,149.2,128.26,148.8,128.08,148.48z"/>
		</g>
		<g>
			<path class="st8" d="M92.54,112.24l-1.68-0.97c-0.32-0.18-0.72-0.07-0.9,0.24l0,0c-0.18,0.32-0.07,0.72,0.24,0.9l1.68,0.97
				c0.32,0.18,0.72,0.07,0.9-0.24l0,0C92.97,112.83,92.86,112.42,92.54,112.24z"/>
		</g>
		<g>
			<path class="st8" d="M137.74,138.34l-1.68-0.97c-0.32-0.18-0.72-0.07-0.9,0.24l0,0c-0.18,0.32-0.07,0.72,0.24,0.9l1.68,0.97
				c0.32,0.18,0.72,0.07,0.9-0.24l0,0C138.16,138.92,138.06,138.52,137.74,138.34z"/>
		</g>
		<g>
			<path class="st8" d="M88.85,124.72h-1.94c-0.36,0-0.66,0.3-0.66,0.66l0,0c0,0.36,0.3,0.66,0.66,0.66h1.94
				c0.36,0,0.66-0.3,0.66-0.66l0,0C89.51,125.01,89.21,124.72,88.85,124.72z"/>
		</g>
		<g>
			<path class="st8" d="M141.04,124.72h-1.94c-0.36,0-0.66,0.3-0.66,0.66l0,0c0,0.36,0.3,0.66,0.66,0.66h1.94
				c0.36,0,0.66-0.3,0.66-0.66l0,0C141.7,125.01,141.4,124.72,141.04,124.72z"/>
		</g>
		<g>
			<path class="st8" d="M91.88,137.37l-1.68,0.97c-0.32,0.18-0.42,0.59-0.24,0.9l0,0c0.18,0.32,0.59,0.42,0.9,0.24l1.68-0.97
				c0.32-0.18,0.42-0.59,0.24-0.9l0,0C92.6,137.29,92.2,137.18,91.88,137.37z"/>
		</g>
		<g>
			<path class="st8" d="M137.08,111.27l-1.68,0.97c-0.32,0.18-0.42,0.59-0.24,0.9l0,0c0.18,0.32,0.59,0.42,0.9,0.24l1.68-0.97
				c0.32-0.18,0.42-0.59,0.24-0.9l0,0C137.8,111.2,137.39,111.09,137.08,111.27z"/>
		</g>
		<g>
			<path class="st8" d="M100.84,146.81l-0.97,1.68c-0.18,0.32-0.07,0.72,0.24,0.9l0,0c0.32,0.18,0.72,0.07,0.9-0.24l0.97-1.68
				c0.18-0.32,0.07-0.72-0.24-0.9l0,0C101.42,146.38,101.02,146.49,100.84,146.81z"/>
		</g>
		<g>
			<path class="st8" d="M126.93,101.61l-0.97,1.68c-0.18,0.32-0.07,0.72,0.24,0.9l0,0c0.32,0.18,0.72,0.07,0.9-0.24l0.97-1.68
				c0.18-0.32,0.07-0.72-0.24-0.9l0,0C127.52,101.18,127.11,101.29,126.93,101.61z"/>
		</g>
		<g>
			<path class="st8" d="M109.52,100.15L109.52,100.15c-0.15,0.03-0.29-0.07-0.31-0.22l-0.27-1.55c-0.03-0.15,0.07-0.29,0.22-0.31
				l0,0c0.15-0.03,0.29,0.07,0.31,0.22l0.27,1.55C109.77,99.99,109.67,100.13,109.52,100.15z"/>
		</g>
		<g>
			<path class="st8" d="M118.79,152.68L118.79,152.68c-0.15,0.03-0.29-0.07-0.31-0.22l-0.27-1.55c-0.03-0.15,0.07-0.29,0.22-0.31
				l0,0c0.15-0.03,0.29,0.07,0.31,0.22l0.27,1.55C119.03,152.51,118.93,152.65,118.79,152.68z"/>
		</g>
		<g>
			<path class="st8" d="M105.21,101.31L105.21,101.31c-0.14,0.05-0.29-0.02-0.35-0.16l-0.54-1.48c-0.05-0.14,0.02-0.29,0.16-0.35
				l0,0c0.14-0.05,0.29,0.02,0.35,0.16l0.54,1.48C105.42,101.1,105.35,101.26,105.21,101.31z"/>
		</g>
		<g>
			<path class="st8" d="M123.45,151.43L123.45,151.43c-0.14,0.05-0.29-0.02-0.35-0.16l-0.54-1.48c-0.05-0.14,0.02-0.29,0.16-0.35
				l0,0c0.14-0.05,0.29,0.02,0.35,0.16l0.54,1.48C123.67,151.22,123.59,151.38,123.45,151.43z"/>
		</g>
		<g>
			<path class="st8" d="M97.51,105.76L97.51,105.76c-0.11,0.1-0.28,0.08-0.38-0.03l-1.01-1.2c-0.1-0.11-0.08-0.28,0.03-0.38l0,0
				c0.11-0.1,0.28-0.08,0.38,0.03l1.01,1.2C97.64,105.49,97.62,105.66,97.51,105.76z"/>
		</g>
		<g>
			<path class="st8" d="M131.79,146.61L131.79,146.61c-0.11,0.1-0.28,0.08-0.38-0.03l-1.01-1.2c-0.1-0.11-0.08-0.28,0.03-0.38l0,0
				c0.11-0.1,0.28-0.08,0.38,0.03l1.01,1.2C131.92,146.35,131.91,146.52,131.79,146.61z"/>
		</g>
		<g>
			<path class="st8" d="M94.35,108.91L94.35,108.91c-0.1,0.11-0.27,0.13-0.38,0.03l-1.2-1.01c-0.11-0.1-0.13-0.27-0.03-0.38l0,0
				c0.1-0.11,0.27-0.13,0.38-0.03l1.2,1.01C94.43,108.63,94.45,108.8,94.35,108.91z"/>
		</g>
		<g>
			<path class="st8" d="M135.21,143.2L135.21,143.2c-0.1,0.11-0.27,0.13-0.38,0.03l-1.2-1.01c-0.11-0.1-0.13-0.27-0.03-0.38l0,0
				c0.1-0.11,0.27-0.13,0.38-0.03l1.2,1.01C135.29,142.91,135.3,143.08,135.21,143.2z"/>
		</g>
		<g>
			<path class="st8" d="M89.9,116.62L89.9,116.62c-0.05,0.14-0.21,0.21-0.35,0.16l-1.48-0.54c-0.14-0.05-0.21-0.21-0.16-0.35l0,0
				c0.05-0.14,0.21-0.21,0.35-0.16l1.48,0.54C89.88,116.32,89.95,116.48,89.9,116.62z"/>
		</g>
		<g>
			<path class="st8" d="M140.02,134.86L140.02,134.86c-0.05,0.14-0.21,0.21-0.35,0.16l-1.48-0.54c-0.14-0.05-0.21-0.21-0.16-0.35
				l0,0c0.05-0.14,0.21-0.21,0.35-0.16l1.48,0.54C140,134.56,140.07,134.72,140.02,134.86z"/>
		</g>
		<g>
			<path class="st8" d="M88.75,120.93L88.75,120.93c-0.03,0.15-0.17,0.24-0.31,0.22l-1.55-0.27c-0.15-0.03-0.24-0.17-0.22-0.31l0,0
				c0.03-0.15,0.17-0.24,0.31-0.22l1.55,0.27C88.68,120.64,88.77,120.78,88.75,120.93z"/>
		</g>
		<g>
			<path class="st8" d="M141.27,130.19L141.27,130.19c-0.03,0.15-0.17,0.24-0.31,0.22l-1.55-0.27c-0.15-0.03-0.24-0.17-0.22-0.31
				l0,0c0.03-0.15,0.17-0.24,0.31-0.22l1.55,0.27C141.2,129.9,141.3,130.04,141.27,130.19z"/>
		</g>
		<g>
			<path class="st8" d="M88.75,129.82L88.75,129.82c0.03,0.15-0.07,0.29-0.22,0.31l-1.55,0.27c-0.15,0.03-0.29-0.07-0.31-0.22l0,0
				c-0.03-0.15,0.07-0.29,0.22-0.31l1.55-0.27C88.58,129.58,88.72,129.68,88.75,129.82z"/>
		</g>
		<g>
			<path class="st8" d="M141.27,120.56L141.27,120.56c0.03,0.15-0.07,0.29-0.22,0.31l-1.55,0.27c-0.15,0.03-0.29-0.07-0.31-0.22l0,0
				c-0.03-0.15,0.07-0.29,0.22-0.31l1.55-0.27C141.11,120.32,141.25,120.42,141.27,120.56z"/>
		</g>
		<g>
			<path class="st8" d="M89.9,134.14L89.9,134.14c0.05,0.14-0.02,0.29-0.16,0.35l-1.48,0.54c-0.14,0.05-0.29-0.02-0.35-0.16l0,0
				c-0.05-0.14,0.02-0.29,0.16-0.35l1.48-0.54C89.7,133.92,89.85,134,89.9,134.14z"/>
		</g>
		<g>
			<path class="st8" d="M140.02,115.89L140.02,115.89c0.05,0.14-0.02,0.29-0.16,0.35l-1.48,0.54c-0.14,0.05-0.29-0.02-0.35-0.16l0,0
				c-0.05-0.14,0.02-0.29,0.16-0.35l1.48-0.54C139.82,115.68,139.97,115.75,140.02,115.89z"/>
		</g>
		<g>
			<path class="st8" d="M94.35,141.84L94.35,141.84c0.1,0.11,0.08,0.28-0.03,0.38l-1.2,1.01c-0.11,0.1-0.28,0.08-0.38-0.03l0,0
				c-0.1-0.11-0.08-0.28,0.03-0.38l1.2-1.01C94.08,141.71,94.25,141.73,94.35,141.84z"/>
		</g>
		<g>
			<path class="st8" d="M135.21,107.56L135.21,107.56c0.1,0.11,0.08,0.28-0.03,0.38l-1.2,1.01c-0.11,0.1-0.28,0.08-0.38-0.03l0,0
				c-0.1-0.11-0.08-0.28,0.03-0.38l1.2-1.01C134.94,107.43,135.11,107.44,135.21,107.56z"/>
		</g>
		<g>
			<path class="st8" d="M97.51,145L97.51,145c0.11,0.1,0.13,0.27,0.03,0.38l-1.01,1.2c-0.1,0.11-0.27,0.13-0.38,0.03l0,0
				c-0.11-0.1-0.13-0.27-0.03-0.38l1.01-1.2C97.22,144.92,97.39,144.9,97.51,145z"/>
		</g>
		<g>
			<path class="st8" d="M131.79,104.14L131.79,104.14c0.11,0.1,0.13,0.27,0.03,0.38l-1.01,1.2c-0.1,0.11-0.27,0.13-0.38,0.03l0,0
				c-0.11-0.1-0.13-0.27-0.03-0.38l1.01-1.2C131.51,104.06,131.68,104.04,131.79,104.14z"/>
		</g>
		<g>
			<path class="st8" d="M105.21,149.44L105.21,149.44c0.14,0.05,0.21,0.21,0.16,0.35l-0.54,1.48c-0.05,0.14-0.21,0.21-0.35,0.16l0,0
				c-0.14-0.05-0.21-0.21-0.16-0.35l0.54-1.48C104.92,149.47,105.07,149.39,105.21,149.44z"/>
		</g>
		<g>
			<path class="st8" d="M123.45,99.32L123.45,99.32c0.14,0.05,0.21,0.21,0.16,0.35l-0.54,1.48c-0.05,0.14-0.21,0.21-0.35,0.16l0,0
				c-0.14-0.05-0.21-0.21-0.16-0.35l0.54-1.48C123.16,99.35,123.31,99.27,123.45,99.32z"/>
		</g>
		<g>
			<path class="st8" d="M109.52,150.6L109.52,150.6c0.15,0.03,0.24,0.17,0.22,0.31l-0.27,1.55c-0.03,0.15-0.17,0.24-0.31,0.22l0,0
				c-0.15-0.03-0.24-0.17-0.22-0.31l0.27-1.55C109.24,150.67,109.38,150.57,109.52,150.6z"/>
		</g>
		<g>
			<path class="st8" d="M118.79,98.07L118.79,98.07c0.15,0.03,0.24,0.17,0.22,0.31l-0.27,1.55c-0.03,0.15-0.17,0.24-0.31,0.22l0,0
				c-0.15-0.03-0.24-0.17-0.22-0.31l0.27-1.55C118.5,98.15,118.64,98.05,118.79,98.07z"/>
		</g>
		<g>
			<path class="st9" d="M113.97,125.47L113.97,125.47c0,0.41-0.34,0.74-0.76,0.74l-17.96-0.17c-0.41,0-0.75-0.34-0.74-0.76l0,0
				c0-0.41,0.34-0.74,0.76-0.74l17.96,0.17C113.64,124.72,113.98,125.06,113.97,125.47z"/>
		</g>
		<g>
			<path class="st9" d="M113.97,125.38L113.97,125.38c-0.22-0.35-0.1-0.81,0.25-1.03l12.23-7.98c0.35-0.22,0.81-0.1,1.03,0.25v0
				c0.22,0.35,0.1,0.81-0.25,1.03L115,125.62C114.65,125.84,114.19,125.73,113.97,125.38z"/>
		</g>
		<g>
			<path class="st10" d="M117.73,141.85c-0.41,0-0.79-0.28-0.89-0.7l-3.76-15.34c-0.12-0.49,0.18-0.99,0.67-1.11
				c0.49-0.12,0.99,0.18,1.11,0.67l3.76,15.34c0.12,0.49-0.18,0.99-0.67,1.11C117.87,141.84,117.8,141.85,117.73,141.85z"/>
		</g>
		<g>
			<circle class="st8" cx="113.97" cy="125.38" r="1.67"/>
		</g>
	</g>
</g>
</svg>
