<?xml version="1.0" encoding="utf-8"?>
<!-- Generator: Adobe Illustrator 27.1.0, SVG Export Plug-In . SVG Version: 6.00 Build 0)  -->
<svg version="1.1" id="Layer_1" xmlns="http://www.w3.org/2000/svg" xmlns:xlink="http://www.w3.org/1999/xlink" x="0px" y="0px"
	 viewBox="0 0 150 181" style="enable-background:new 0 0 150 181;" xml:space="preserve">
<style type="text/css">
	.st0{fill:#E7266A;}
	.st1{clip-path:url(#SVGID_00000079464749572964835840000006574764486116952244_);fill:#EBEFF2;}
	.st2{fill:#FFFFFF;}
	.st3{fill:#37474F;}
	.st4{fill:#EBEFF2;}
	.st5{fill:#17DC96;}
</style>
<g>
	<g>
		<g>
			
				<ellipse transform="matrix(0.2036 -0.979 0.979 0.2036 -12.1331 119.2368)" class="st0" cx="67.23" cy="67.08" rx="67.43" ry="67.43"/>
		</g>
	</g>
</g>
<g>
	<g>
		<g>
			<defs>
				<circle id="SVGID_1_" cx="75.56" cy="105.92" r="74.43"/>
			</defs>
			<clipPath id="SVGID_00000157286655306898963380000014920076706085781396_">
				<use xlink:href="#SVGID_1_"  style="overflow:visible;"/>
			</clipPath>
			<path style="clip-path:url(#SVGID_00000157286655306898963380000014920076706085781396_);fill:#EBEFF2;" d="M158.8,115.92
				c-0.71-4.1-4.61-6.85-8.71-6.14c-2.91,0.5-5.13,2.62-5.92,5.26c-2.23-0.58-4.61-0.71-7.02-0.29
				c-9.11,1.58-15.21,10.24-13.63,19.35c0.32,1.82,0.93,3.52,1.75,5.06c-2.29,0.56-3.87,2.6-3.87,4.92
				c-2.08-0.82-4.39-1.12-6.74-0.71c-2.39,0.41-4.48,1.49-6.17,2.99c-2.74-4.62-8.12-7.32-13.73-6.34c-2.41,0.42-4.56,1.47-6.3,2.94
				c0.03-0.03,0.06-0.06,0.09-0.09c-2.91-1.74-5.07-4.7-5.7-8.32l-2.55-14.71c-0.49-2.81,1.4-5.49,4.21-5.97l-14.71,2.55
				c2.81-0.49,5.49,1.4,5.97,4.21l2.55,14.71c0.63,3.62-0.41,7.13-2.57,9.75c0.04,0.01,0.08,0.03,0.12,0.05
				c-2.14-0.8-4.51-1.07-6.92-0.65c-5.61,0.97-9.77,5.32-10.79,10.59c-2.09-0.85-4.43-1.15-6.81-0.74
				c-2.36,0.41-4.44,1.46-6.11,2.94c-0.77-2.18-2.95-3.58-5.3-3.33c0.26-1.73,0.27-3.53-0.05-5.36
				c-1.58-9.1-10.24-15.21-19.35-13.63c-2.41,0.42-4.61,1.34-6.51,2.64c-1.64-2.22-4.44-3.47-7.35-2.96
				c-4.1,0.71-6.85,4.61-6.14,8.71c0.56,3.26,3.15,5.65,6.24,6.15c-0.18,1.57-0.16,3.18,0.13,4.81c1.38,7.99,8.23,13.67,16.04,13.88
				l5.71,32.98l60.88-10.55l0,0l62.25-10.79l-5.71-32.98c7.28-2.82,11.82-10.47,10.43-18.46c-0.28-1.63-0.8-3.16-1.5-4.58
				C157.74,122.31,159.37,119.18,158.8,115.92z"/>
		</g>
		<g>
			<path class="st2" d="M108.64,43.7c-2.1,0-3.81,1.71-3.81,3.81c0-2.1-1.7-3.81-3.81-3.81c2.11,0,3.81-1.71,3.81-3.8
				C104.83,41.99,106.54,43.7,108.64,43.7z"/>
			<path class="st2" d="M95.83,71.38c-1.34,0-2.42,1.09-2.42,2.42c0-1.33-1.09-2.42-2.42-2.42c1.34,0,2.42-1.09,2.42-2.42
				C93.41,70.3,94.49,71.38,95.83,71.38z"/>
			<path class="st2" d="M24.82,99.72c-2.1,0-3.81,1.71-3.81,3.81c0-2.1-1.71-3.81-3.81-3.81c2.1,0,3.81-1.71,3.81-3.81
				C21.01,98.01,22.72,99.72,24.82,99.72z"/>
			<path class="st2" d="M48.33,27.72c-5.11,0-9.27,4.14-9.27,9.24c0-5.1-4.13-9.24-9.24-9.24c5.12,0,9.24-4.15,9.24-9.27
				C39.07,23.57,43.23,27.72,48.33,27.72z"/>
		</g>
		<g>
			<g>
				
					<rect x="109.92" y="104.7" transform="matrix(0.9853 -0.1707 0.1707 0.9853 -16.5389 21.0641)" class="st3" width="8.57" height="4"/>
				<path class="st2" d="M109.07,77.06c-1.99,4.32-2.74,9.26-1.87,14.3l2.44,14.1l8.45-1.46l-2.44-14.1
					C114.77,84.86,112.4,80.45,109.07,77.06z"/>
				<path class="st3" d="M109.07,77.06c-0.77,1.66-1.34,3.41-1.72,5.23l5.1-0.88C111.49,79.82,110.35,78.36,109.07,77.06z"/>
			</g>
			<g>
				
					<rect x="35.14" y="117.65" transform="matrix(0.9853 -0.1707 0.1707 0.9853 -19.8487 8.4879)" class="st3" width="8.57" height="4"/>
				<path class="st2" d="M34.29,90.02c-1.99,4.32-2.74,9.26-1.87,14.3l2.44,14.1l8.44-1.46l-2.44-14.1
					C39.99,97.81,37.62,93.41,34.29,90.02z"/>
				<path class="st3" d="M34.29,90.02c-0.77,1.66-1.34,3.41-1.72,5.23l5.1-0.88C36.71,92.77,35.57,91.32,34.29,90.02z"/>
			</g>
			<path class="st3" d="M80.54,64.99l6.97,40.24l22.13,0.23l-2.44-14.1C95.35,93.41,83.42,81.61,80.54,64.99z"/>
			<path class="st3" d="M57.1,69.05l6.97,40.24l-20.77,7.66l-2.44-14.1C52.71,100.8,59.98,85.67,57.1,69.05z"/>
			<g>
				<path class="st2" d="M60.61,19.64c-5.53,11.99-7.61,25.71-5.19,39.7l8.66,49.95l23.44-4.06l-8.66-49.95
					C76.43,41.29,69.85,29.07,60.61,19.64z"/>
				<path class="st3" d="M60.61,19.64c-2.12,4.61-3.73,9.47-4.78,14.51l14.16-2.45C67.31,27.3,64.16,23.26,60.61,19.64z"/>
				
					<rect x="63.22" y="99.32" transform="matrix(0.9853 -0.1707 0.1707 0.9853 -16.5366 14.34)" class="st4" width="23.79" height="8"/>
				<polygon class="st3" points="85.21,113.75 69.11,116.54 64.08,109.29 87.51,105.23 				"/>
			</g>
			<g>
				<path class="st3" d="M73.46,51.58c0.68,3.92-1.95,7.65-5.87,8.33c-3.92,0.68-7.65-1.95-8.33-5.87
					c-0.68-3.92,1.94-7.65,5.87-8.33C69.05,45.03,72.78,47.67,73.46,51.58z"/>
				<path class="st5" d="M71.1,51.99c0.45,2.61-1.31,5.1-3.92,5.56c-2.62,0.45-5.1-1.3-5.55-3.92c-0.45-2.61,1.3-5.1,3.91-5.56
					C68.15,47.63,70.64,49.38,71.1,51.99z"/>
				<path class="st5" d="M69.62,52.25c0.31,1.8-0.89,3.51-2.69,3.82c-1.8,0.31-3.51-0.89-3.82-2.69c-0.31-1.8,0.89-3.51,2.69-3.82
					C67.59,49.25,69.3,50.45,69.62,52.25z"/>
			</g>
		</g>
	</g>
</g>
<g>
	<g>
		<path class="st3" d="M145.9,99.95c-0.55,0-1.03-0.41-1.09-0.97c-1.98-16.82-9.37-32.06-21.37-44.06c-0.43-0.43-0.43-1.13,0-1.56
			c0.43-0.43,1.13-0.43,1.56,0c12.36,12.36,19.97,28.04,22,45.36c0.07,0.61-0.36,1.15-0.97,1.22
			C145.98,99.95,145.94,99.95,145.9,99.95z"/>
	</g>
</g>
<g>
	<g>
		<path class="st3" d="M70.59,174.61c-36.2,0-65.65-29.45-65.65-65.65c0-0.61,0.49-1.1,1.1-1.1c0.61,0,1.1,0.49,1.1,1.1
			c0,34.98,28.46,63.45,63.45,63.45c0.61,0,1.1,0.49,1.1,1.1C71.7,174.12,71.2,174.61,70.59,174.61z"/>
	</g>
</g>
<g>
	<path class="st3" d="M118.25,156.76c1.31-0.28,2.59,0.55,2.87,1.85c0.28,1.3-0.55,2.59-1.85,2.87c-1.31,0.28-2.59-0.55-2.87-1.85
		C116.11,158.33,116.94,157.04,118.25,156.76z"/>
	<polygon class="st3" points="111.19,144.74 101.77,153.27 99.09,140.85 111.19,144.74 101.77,153.27 99.09,140.85 	"/>
	<g>
		<path class="st3" d="M69.37,128.03l7.93,5.12l-5.11,7.93l-7.93-5.12L69.37,128.03z M75.85,133.46l-6.17-3.98l-3.98,6.17l6.17,3.98
			L75.85,133.46z"/>
	</g>
	<g>
		<path class="st3" d="M85.47,148.49l1.9,8.81l-8.58-2.76L85.47,148.49z M85.96,155.74l-1.13-5.26l-3.99,3.61L85.96,155.74z"/>
	</g>
	<g>
		
			<rect x="115.05" y="136.41" transform="matrix(0.9775 -0.2108 0.2108 0.9775 -27.8383 27.6108)" class="st3" width="1.05" height="15.91"/>
	</g>
	<g>
		
			<rect x="70.55" y="148.82" transform="matrix(0.9775 -0.2108 0.2108 0.9775 -31.7198 18.5362)" class="st3" width="1.05" height="18.42"/>
	</g>
	<g>
		
			<rect x="93.75" y="126.88" transform="matrix(0.9775 -0.2108 0.2108 0.9775 -25.4423 22.8127)" class="st3" width="1.05" height="7.7"/>
	</g>
	<g>
		
			<rect x="92" y="134.08" transform="matrix(0.9775 -0.2108 0.2108 0.9775 -28.1302 22.7264)" class="st3" width="1.05" height="18.42"/>
	</g>
</g>
</svg>
