<?xml version="1.0" encoding="utf-8"?>
<!-- Generator: Adobe Illustrator 27.1.0, SVG Export Plug-In . SVG Version: 6.00 Build 0)  -->
<svg version="1.1" id="Layer_1" xmlns="http://www.w3.org/2000/svg" xmlns:xlink="http://www.w3.org/1999/xlink" x="0px" y="0px"
	 viewBox="0 0 150 181" style="enable-background:new 0 0 150 181;" xml:space="preserve">
<style type="text/css">
	.st0{fill:#E7266A;}
	.st1{fill:#37474F;}
	.st2{fill:#CDD5D7;}
	.st3{fill:#EBEFF2;}
	.st4{fill:#FFFFFF;}
	.st5{fill:#E6E5E5;}
	.st6{fill:#15C586;}
	.st7{fill:#12AE77;}
	.st8{fill:#17DC96;}
</style>
<g>
	<g>
		<g>
			<g>
				
					<ellipse transform="matrix(0.1587 -0.9873 0.9873 0.1587 -9.7456 122.6328)" class="st0" cx="67.08" cy="67.03" rx="67.13" ry="67.13"/>
			</g>
		</g>
	</g>
	<g>
		<g>
			<path class="st1" d="M121.75,171.68c-0.31,0-0.62-0.14-0.83-0.4c-0.37-0.46-0.29-1.13,0.17-1.49c1.09-0.87,2.16-1.77,3.19-2.7
				c0.43-0.39,1.1-0.36,1.5,0.08c0.39,0.44,0.36,1.11-0.08,1.5c-1.07,0.96-2.16,1.89-3.29,2.78
				C122.21,171.6,121.98,171.68,121.75,171.68z M129.53,164.48c-0.26,0-0.52-0.1-0.73-0.29c-0.43-0.4-0.45-1.07-0.05-1.5
				c5.76-6.15,10.36-13.19,13.66-20.92c0.23-0.54,0.86-0.79,1.39-0.56c0.54,0.23,0.79,0.85,0.56,1.39
				c-3.4,7.95-8.13,15.2-14.06,21.54C130.1,164.37,129.82,164.48,129.53,164.48z M148.94,107.95c-0.54,0-1.01-0.41-1.06-0.97
				c-0.13-1.4-0.29-2.78-0.5-4.15c-0.09-0.58,0.31-1.12,0.89-1.2c0.58-0.08,1.12,0.31,1.21,0.89c0.21,1.41,0.38,2.83,0.51,4.27
				c0.05,0.58-0.38,1.1-0.96,1.15C149,107.95,148.97,107.95,148.94,107.95z M147.22,97.49c-0.48,0-0.91-0.33-1.03-0.82
				c-1.96-8.17-5.32-15.87-9.98-22.9c-0.32-0.49-0.19-1.15,0.3-1.47c0.49-0.32,1.15-0.19,1.47,0.3c4.8,7.23,8.26,15.16,10.28,23.58
				c0.14,0.57-0.21,1.14-0.78,1.28C147.39,97.48,147.3,97.49,147.22,97.49z M134.64,70.78c-0.32,0-0.64-0.15-0.85-0.43
				c-1.25-1.66-2.59-3.3-3.98-4.85c-0.39-0.44-0.35-1.11,0.08-1.5c0.44-0.39,1.11-0.36,1.5,0.08c1.43,1.6,2.81,3.28,4.1,5
				c0.35,0.47,0.26,1.13-0.21,1.48C135.09,70.71,134.87,70.78,134.64,70.78z"/>
		</g>
	</g>
	<g>
		<g>
			<g>
				<path class="st1" d="M15.95,74.47c-0.21,0-0.42-0.06-0.6-0.19c-0.48-0.33-0.61-0.99-0.28-1.48c1.54-2.25,3.23-4.44,5.02-6.51
					c0.38-0.45,1.05-0.49,1.5-0.11c0.44,0.38,0.49,1.05,0.11,1.5c-1.74,2.01-3.38,4.14-4.87,6.33
					C16.62,74.31,16.28,74.47,15.95,74.47z"/>
			</g>
		</g>
		<path class="st1" d="M4.24,114.66c0-11.41,2.59-22.32,7.7-32.43c0.26-0.52,0.06-1.16-0.47-1.43c-0.52-0.26-1.16-0.05-1.43,0.47
			c-4.71,9.32-7.33,19.31-7.83,29.73c-0.02,0.08-0.06,0.16-0.06,0.24c-0.36,9.87,1.2,19.54,4.65,28.74
			c0.16,0.43,0.56,0.69,0.99,0.69c0.12,0,0.25-0.02,0.37-0.07c0.55-0.21,0.83-0.82,0.62-1.37C5.84,131.35,4.32,123.09,4.24,114.66
			C4.24,114.67,4.24,114.67,4.24,114.66z"/>
	</g>
	<g>
		<g>
			<path class="st1" d="M76.21,178.35c-34.86,0-63.22-28.36-63.22-63.22c0-0.59,0.47-1.06,1.06-1.06c0.59,0,1.06,0.47,1.06,1.06
				c0,33.69,27.41,61.1,61.1,61.1c0.59,0,1.06,0.47,1.06,1.06C77.27,177.88,76.79,178.35,76.21,178.35z"/>
		</g>
	</g>
</g>
<g>
	<g>
		<polygon class="st2" points="70.29,173.96 105.64,134.51 141,95.06 70.29,95.06 -0.43,95.06 34.93,134.51 		"/>
		<polygon class="st3" points="70.29,173.96 85.87,134.51 101.46,95.06 70.29,95.06 39.11,95.06 54.7,134.51 		"/>
	</g>
	<g>
		<polygon class="st4" points="141,95.25 70.29,95.25 -0.43,95.25 19.04,70.18 121.55,70.18 		"/>
		<polygon class="st5" points="70.29,69.93 101.46,95.25 70.29,95.25 39.11,95.25 		"/>
		<polygon class="st2" points="101.71,95.25 121.49,70.18 121.55,70.18 141,95.25 		"/>
		<polygon class="st5" points="38.86,95.25 19.08,70.18 19.04,70.18 -0.43,95.25 		"/>
	</g>
</g>
<g>
	<path class="st4" d="M34.91,57.12l-7.7-1.71l7.7-1.71l1.71-7.7l1.7,7.7l7.71,1.71l-7.71,1.71l-1.7,7.7L34.91,57.12z M37.01,55.02
		l-0.39-1.75l-0.39,1.75l-1.74,0.39l1.74,0.39l0.39,1.75l0.39-1.75l1.75-0.39L37.01,55.02z"/>
</g>
<g>
	<path class="st4" d="M48.74,22.54l-10.55-0.89v-1.57l10.55-0.89l0.9-10.55l1.57,0l0.89,10.55l10.55,0.89v1.57l-10.55,0.89
		L51.2,33.09l-1.57,0L48.74,22.54z M50.63,20.64l-0.22-2.6l-0.22,2.6l-2.61,0.22l2.61,0.22l0.22,2.6l0.22-2.6l2.61-0.22L50.63,20.64
		z"/>
</g>
<g>
	<path class="st4" d="M73.59,46.58L58.94,44.1l14.64-2.47l2.47-14.65l2.47,14.65l14.64,2.47l-14.64,2.47l-2.47,14.64L73.59,46.58z
		 M77.16,43l-1.1-6.55L74.95,43l-6.56,1.11l6.56,1.11l1.11,6.55l1.1-6.55l6.56-1.11L77.16,43z"/>
</g>
<g>
	<g>
		<g>
			<polygon class="st6" points="101.8,113.17 108.46,110.34 115.12,107.51 129.34,140.99 121.35,140.71 116.01,146.65 			"/>
			<g>
				<polygon class="st7" points="117.03,145.51 118.23,144.18 104.57,111.99 103.08,112.63 				"/>
				<polygon class="st7" points="126.02,140.88 127.81,140.94 113.85,108.06 112.36,108.69 				"/>
			</g>
		</g>
		<g>
			<polygon class="st6" points="104.75,108.99 111.46,111.71 118.18,114.42 104.55,148.14 99.1,142.3 91.12,142.72 			"/>
			<g>
				<polygon class="st7" points="92.65,142.63 94.44,142.54 107.54,110.12 106.04,109.51 				"/>
				<polygon class="st7" points="102.29,145.71 103.5,147.02 116.89,113.9 115.39,113.29 				"/>
			</g>
		</g>
	</g>
	<g>
		<path class="st8" d="M135.89,105.61c0,1.64-2.26,3.04-2.57,4.59c-0.32,1.6,1.23,3.76,0.62,5.23c-0.62,1.5-3.25,1.92-4.14,3.26
			c-0.9,1.34-0.29,3.93-1.43,5.06c-1.14,1.14-3.72,0.53-5.06,1.43c-1.33,0.89-1.76,3.52-3.25,4.14c-1.47,0.61-3.63-0.94-5.23-0.62
			c-1.55,0.31-2.95,2.57-4.59,2.57c-1.64,0-3.04-2.26-4.59-2.57c-1.6-0.32-3.76,1.23-5.23,0.62c-1.5-0.62-1.92-3.25-3.26-4.14
			c-1.34-0.9-3.93-0.29-5.07-1.43c-1.14-1.14-0.53-3.72-1.43-5.07c-0.89-1.33-3.52-1.76-4.14-3.25c-0.61-1.47,0.94-3.63,0.62-5.23
			c-0.31-1.55-2.57-2.95-2.57-4.59c0-1.64,2.26-3.04,2.57-4.59c0.32-1.6-1.23-3.76-0.62-5.23c0.62-1.5,3.25-1.92,4.14-3.26
			c0.9-1.34,0.29-3.93,1.43-5.07c1.14-1.14,3.72-0.53,5.07-1.43c1.33-0.89,1.76-3.52,3.26-4.14c1.47-0.61,3.63,0.94,5.23,0.62
			c1.55-0.31,2.95-2.57,4.59-2.57c1.64,0,3.04,2.26,4.59,2.57c1.6,0.32,3.76-1.23,5.23-0.62c1.5,0.62,1.92,3.25,3.26,4.14
			c1.34,0.9,3.93,0.29,5.07,1.43c1.14,1.14,0.53,3.72,1.43,5.07c0.89,1.33,3.51,1.76,4.14,3.26c0.61,1.47-0.94,3.63-0.62,5.23
			C133.63,102.57,135.89,103.97,135.89,105.61z"/>
		<path class="st7" d="M129.36,105.61c0,10.56-8.57,19.13-19.13,19.13c-10.57,0-19.13-8.57-19.13-19.13
			c0-10.57,8.57-19.13,19.13-19.13C120.79,86.48,129.36,95.05,129.36,105.61z"/>
		<path class="st8" d="M127.31,105.61c0,9.43-7.65,17.08-17.08,17.08c-9.43,0-17.08-7.65-17.08-17.08c0-9.43,7.65-17.08,17.08-17.08
			C119.66,88.53,127.31,96.18,127.31,105.61z"/>
		<path class="st8" d="M127.31,106.07c0,9.18-7.45,16.63-16.63,16.63c-9.18,0-16.62-7.45-16.62-16.63c0-9.18,7.44-16.63,16.62-16.63
			C119.87,89.44,127.31,96.89,127.31,106.07z"/>
		<polygon class="st4" points="109.78,94.73 113.16,101.59 120.74,102.69 115.26,108.03 116.55,115.58 109.78,112.01 103,115.58 
			104.29,108.03 98.81,102.69 106.39,101.59 		"/>
	</g>
</g>
<g>
	<g>
		<polygon class="st4" points="96.24,60.84 100.47,79.1 99.54,79.28 95.31,61.02 		"/>
	</g>
	<g>
		
			<rect x="87.3" y="81.53" transform="matrix(0.8948 -0.4465 0.4465 0.8948 -28.4946 48.3091)" class="st4" width="1.9" height="6.16"/>
	</g>
	<g>
		
			<rect x="122.04" y="73.71" transform="matrix(0.5837 -0.812 0.812 0.5837 -5.5243 137.5868)" class="st4" width="18.75" height="0.95"/>
	</g>
	<g>
		
			<rect x="99.23" y="61.7" transform="matrix(0.1695 -0.9855 0.9855 0.1695 30.2163 161.1547)" class="st4" width="22.99" height="1.9"/>
	</g>
	<g>
		
			<rect x="107.66" y="71.36" transform="matrix(0.3647 -0.9311 0.9311 0.3647 8.0346 155.4539)" class="st4" width="20.57" height="0.95"/>
	</g>
	<g>
		<path class="st4" d="M136.91,85.87c2.01-0.19,3.89,1.01,4.57,2.92c0.82,2.29-0.39,4.82-2.68,5.64c-0.35,0.12-0.71,0.2-1.08,0.24
			c-2.01,0.19-3.89-1.01-4.57-2.92c-0.82-2.3,0.39-4.83,2.68-5.64C136.19,85.98,136.55,85.9,136.91,85.87z M137.64,93.72
			c0.29-0.03,0.57-0.09,0.85-0.19c1.8-0.64,2.75-2.63,2.11-4.43c-0.53-1.5-2.01-2.44-3.59-2.29c-0.29,0.03-0.57,0.09-0.84,0.19
			c-1.8,0.64-2.75,2.63-2.11,4.43C134.58,92.93,136.06,93.87,137.64,93.72z"/>
	</g>
	
		<rect x="143.62" y="72.28" transform="matrix(0.4293 -0.9031 0.9031 0.4293 15.9882 174.001)" class="st4" width="4.13" height="4.13"/>
</g>
<g>
	
		<rect x="136.45" y="126.75" transform="matrix(0.6138 -0.7895 0.7895 0.6138 -52.8512 159.8199)" class="st1" width="0.95" height="14.35"/>
</g>
<g>
	
		<rect x="127.87" y="131.54" transform="matrix(0.7431 -0.6692 0.6692 0.7431 -61.0119 122.3283)" class="st1" width="1.9" height="18.18"/>
</g>
<g>
	<path class="st1" d="M139.2,125.01l-3.97-5.1l5.1-3.97l3.97,5.1L139.2,125.01z M136.57,120.07l2.8,3.6l3.6-2.8l-2.8-3.6
		L136.57,120.07z"/>
</g>
</svg>
