<svg class="tnit-scratch-shape" xmlns="http://www.w3.org/2000/svg" viewBox="0 0 1920 65">
                  <path class="tnit-scratch-path" d="M0-.70751V27.51807C3.89844,25.46192,31.40265,12.39576,107.88855,8.2c.66779.10571,1.34869.2135,2.0014.31677,2.28876.37134,4.18158.79419,3.62518,1.53845-6.6861.13965-13.33765.74719-19.9906,1.21362-2.24719-.1377-5.41888-.11975-9.1015-.01575-.92059.02991-1.87311.061-2.85114.0929-.97565.05762-1.97363.14868-2.99219.22827-2.03662.17358-4.1488.35352-6.28479.53564-4.27521.37524-8.64557.75891-12.696,1.11438-4.03156.50073-7.75305.92188-10.759,1.16052-.392.3468.41309.62476-2.48749,1.11792a61.6857,61.6857,0,0,0-8.3385,1.66968c-2.2619.56335-4.6153,1.13574-8.87347,1.90771a54.57173,54.57173,0,0,1-9.58929,3.66846c-2.04883.5874-3.206.61963-4.78595,1.15381-3.59149,1.24744.15076.81726-2.19983,1.95593-.23865.11548-1.24829.41687-2.28052.72412-1.01459.33655-2.02411.72632-2.34106.87634a7.2737,7.2737,0,0,0-2.11969,1.384,9.17526,9.17526,0,0,1-2.101,1.35864,26.48878,26.48878,0,0,1,3.51349-1.34119c.89569-.27173,1.35046-.32422.9776.03735-1.41217.65735-2.19147,1.05237-2.65,1.31885a2.18,2.18,0,0,0-.67065.57166,2.58755,2.58755,0,0,1-.57971.57336c-.18372.142-.43427.31873-.78583.54651-.17169.11-.36676.23486-.58929.37744-.15533.12329-.33063.25562-.53.39624l.4118-.204.21-.11072.30872-.13782,1.26923-.57458c.43176-.193.84692-.39722,1.28595-.58008.45752-.17224.90552-.34082,1.3327-.50159a16.73957,16.73957,0,0,1,3.46661-1.0835c-1.40472.54688-2.15167.91443-2.991,1.30591-.8205.3656-1.72394.76819-3.40094,1.51538a6.80475,6.80475,0,0,0,2.51251-.382c1.30823-.30359,2.88855-.67041,4.18347-.97095a5.9107,5.9107,0,0,1,2.60016-.19714c.23328.18811-.46625.59741-2.39624,1.61853,3.22681-.98975,6.11414-1.74377,7.53735-2.05261,1.44446-.29211,1.50293-.05994-.68085,1.09436.699-.18726,1.35187-.36743,1.98334-.51648.64935-.121,1.26257-.23523,1.84521-.34387,1.16681-.20654,2.214-.37,3.18433-.506,1.94061-.27185,3.574-.43335,5.24207-.60937a106.335,106.335,0,0,0,13.5155-1.61035c1.06268.46326,8.48041-.58228,7.17065.54663,3.20459-.45691,6.48877-.92529,9.82813-1.40137,3.358-.40894,6.82471-.66089,10.28943-1.01953,3.47174-.3385,6.97095-.69788,10.47217-1.10046,3.51593-.3457,7.0708-.59033,10.58325-.97913,5.04749-.53,7.40112-1.15027,12.34113-1.62439.99207-.09045,2.01758-.20154,3.07941-.27612,1.06512-.05481,2.16-.11108,3.27765-.16858,2.236-.10535,4.56274-.21509,6.923-.32629,4.722-.21252,9.57819-.431,14.11157-.63513,4.52606-.27661,8.76349-.26428,12.20514-.39465,3.44373-.11279,6.10406-.26477,7.52118-.48047,4.42023.23694,7.75439.19641,11.11426.07727,3.36072-.10083,6.74036-.38074,11.26672-.26575,10.09442.14319,22.052.69666,27.34027.75281,1.98346.03015,6.18115-.39465,7.56635-.25378,10.52588,1.09607,8.22723,2.349,1.88464,2.75073,7.05994.73181,12.77344.06177,14.91516.83667-7.02252-.34973-3.37115.95435-12.6524.25256-.1853.55579,4.11481.93872,2.15375,1.56311,9.23816.14355,18.21844.8468,27.3374,1.29065,3.9483.21936,7.43646.19714,11.00909.36487,3.57245.14551,7.22858.281,11.51025.53943,13.26221.82214,28.73718,2.152,37.28973,2.89014,10.1911.99475,22.33478,2.44946,32.29572,3.21863,1.72174.13367,4.82306.067,7.58246.3291,1.938.18433,4.44659.51733,7.06744.866,2.62634.34741,5.36487.70972,7.749,1.025,7.03546.88977,13.26849,1.22961,19.96283,2.35474.56738-1.05408,16.82928,1.50464,27.50244,3.09241,1.4198.07458,3.0174.20129,4.76654.37024q1.311.13623,2.73413.28418,1.45.16406,3.00439.34009c4.23572.39636,9.00391.84265,14.08008,1.31763,9.89416.90088,20.94928,1.82678,31.45984,2.298.39978-.22156.45013-.37671,2.64014-.33057,5.26923.11316,14.21558.54761,23.0528.92371,4.41827.22485,8.81189.44836,12.709.64673,3.89508.18811,7.29254.38147,9.72015.563-5.62537.30017,1.10742.7251-.32733,1.42859,5.765.244,11.103.58154,16.74512.77563,5.64246.20764,11.59229.39465,18.58386.5116-3.15521-.8501,8.13531-.12805,10.20886-.27429,2.00647-.10913.502-.81677,5.19171-.64441,5.792.43665-5.08466.68591,4.903.79236,6.52777.03784-3.38171-.46289.19666-.95752,7.85254.51416,10.49524-.7384,12.67236-.05225-10.04388.293,3.20166.644-2.76465,1.15845,6.10205.04749,28.82837.335,22.78143-.10754-3.7713-.05469-9.33649.05286-10.05994-.27661,7.34216.11743,10.56891-.14636,15.19812-.1864.89832-.01648,11.40717-.20935,12.66144-.23242,1.541.02905,1.90741.48547,4.96423.43982,1.54529-.02283,2.97034-.50134,7.65894-.53943,4.3645-.03833,7.38837.29077,12.58014.13733,6.033-.427,14.3703-.91687,22.72321-1.20447,8.3526-.29907,16.7207-.41858,22.80829-.34631.43866-.29663-.32666-.67151,2.63672-.8042,11.45526-.15759,35.90149-1.21033,55.4834-2.24341,4.69531-.21619,5.62146.03687,10.03839-.20374,2.51538-.13721,3.95074-.52112,10.14685-.93066.42017-.01465,1.90466-.06665,3.80206-.13306,1.896-.09143,4.20374-.21875,6.26965-.39478,15.62244-1.33679-10.79773.69385-4.9397-.4397,8.72559-.68689,11.04279-.405,12.489.00732,7.95776-.57141,8.83051-.069,17.58813-.76294,3.32953-.19348,2.35632-.5564,5.09766-.77209,3.96509-.20544,1.89319.50391,7.48785.05286,6.90265-1.32532,17.78979-1.06689,30.0426-2.26807,2.92578.345,2.87482,1.15784,9.79425.93506.28949-.39258-.21783-.82166,5.08734-.97791-1.29938,1.44055-.94153,1.59009-7.83575,3.04053,19.1662-.88855,25.10962-1.16406,42.4043-1.96582.40771-.46509,1.75928-.87463,5.13464-1.16968.28931.525,6.20764.22864,12.40094.037,1.97-.79773-6.78027-.2605-4.8064-1.05823,4.34088.09,8.60333.19031,7.304.98352,7.978-.02551,3.53851-.89795,10.09216-1.02124,24.03754-1.10693,48.58112-1.26685,72.67419-2.60156a29.92818,29.92818,0,0,0,4.85822.69495c32.2674-.58752,68.22162-.33984,105.22931.51746,2.48529-.19666,5.04346-.33948,7.65747-.49292,5.50928.97571,4.54382.13147,12.50873.40332,3.60162.12268,4.09729.57544,7.40649.72-.75391-.03284,7.162.00562,10.06543.08289,14.61865.447,20.21332.61816,30.09332.92029,2.75269-1.24,19.16022.52417,20.08081.56775.01233-.002.54614-.08508,1.15485-.17993.60956-.0896,1.27069-.17908,1.46466-.1792a87.20912,87.20912,0,0,1,9.96051.70569c5.17474.88391,11.05206.50122,17.52234.81873,4.71875.22278,12.9162.60974,17.53278.82764,10.48163.44263,21.39691,1.11121,27.54163,1.44849a50.29541,50.29541,0,0,1,5.06641.02454c1.9964.12488,3.47711.44617,4.95062.50256,9.41888.33826,16.92462.01123,25.21643.67249.14746.38574-.53894.80176,4.83746.99854,10.73523.73291,3.35846-.45251,7.68836-.27759,3.0257.38281,14.88788,1.62427,17.46515,1.24744-3.92682-.24976-8.68988-.46948-7.39185-.90845,9.41693.286,6.99292,1.00061,14.908,1.3407,3.55414-1.07849,21.48859,1.68628,27.66846,1.2168-1.39117-.08569-2.79687-.36841.055-.23694.704.36755,3.45313.67346,2.26581,1.10193,5.22662.17981,16.37457,1.3103,17.5896.84827-17.504-.83582,7.21027-1.06262,10.1955-.092-.13721.3894-6.97467-.29541-7.63245.0105,13.49683.51563,22.79144.8158,37.621,2.1781.47077-.25232-.25226-.69922,2.69006-.54529,3.46033.939,9.85.32813,17.52978,1.14758-.21906.29382-3.29309.1178-2.68549.546,14.072-.006,8.49512,1.71594,19.9126,1.7854,3.2962-.563-8.05493-.71033-4.76837-1.27332,3.31781.21448,2.39642-.266,5.13257-.14685,2.59644.32385,10.44879.49585,12.53845.83508.41034.06641-.57678.43188-.11768.47449,6.7959.61633,14.59155.84668,25.11914,1.61169.6095-.1488.18646-.46326,2.63238-.31653,13.75708,1.06042,28.94788,1.58057,45.33118,2.56531.4624-.26331-.27649-.69385,2.68866-.60413a47.45141,47.45141,0,0,0,8.168-.0072,49.63452,49.63452,0,0,1,7.1532-.20349c1.54889-.37817-2.74005-1.48962,2.84125-1.35889,3.767.14978,9.34985.18225,10.05279.52856-9.36883.10461-5.55554.44543-7.89,1.21362,9.761.14551,21.21906-.36035,25.35382.21985-2.30933.39856-8.163.60938-2.77209,1.16858,3.855-.11975,8.92383-.13794,13.979-.08923,5.05908-.04456,10.10413-.00879,13.90588.11792,4.55249-.658-2.41931-1.13086,7.84863-1.50916-.68518.615,5.92224.47644,7.48071.6051,1.26831.14453-5.45105.74976,2.45642.40222,8.95288.0907,1.65979-.86755,7.72754-.964,5.90833-.23877,10.48779-.20471,14.77356-.14771,4.28442.00769,8.27307-.05066,12.99536-.30176,3.50781-.19519,6.77368-.53577,10.387-.87854,1.80676-.17139,3.70044-.34338,5.75525-.49817,2.05481-.15381,4.26538-.3905,6.71448-.54565,3.5387-.84436-6.41272-.37158.11633-.97339,9.57617-.57825,1.739.82141,2.33362,1.49072,4.73572-.38171,5.37793-.63293,2.599-.69788,4.31384-.5116,4.224-1.08032,7.68066-1.60352,4.957-.34277,5.04407-.7467,7.63159-1.12012a107.15448,107.15448,0,0,0,12.27258-.84155c4.42078-.4624,9.36462-1.00635,15.41907-1.43823a14.95545,14.95545,0,0,0,3.86255-.91248,35.20827,35.20827,0,0,1,6.25769-1.05505c9.51672-1.71436,4.78735-.02,12.5365-1.3114,16.72888-3.07544,28.80652-3.44189,42.60046-6.50623-2.87414.1145-9.823.95984-4.99866-.3374a31.86244,31.86244,0,0,0,4.83887-.34949c2.22424-.292,4.97522-.62708,7.875-1.24744,5.8158-1.15649,12.3833-2.63538,17.16211-3.85779.57141.3429-2.78149,1.12805-2.455,1.4989,2.29309-.2467,8.39331-1.37341,13.35754-2.3999,2.48926-.48132,4.66272-1.07385,5.948-1.45532,1.28467-.384,1.67334-.5896.55444-.47339-1.66992.446-2.84216.83936-4.2511,1.2301-1.41516.36316-3.06043.7522-5.66162,1.24817.54443-.57849-2.81238.05-2.51-.452,2.49316-.52576,2.94556-.82056,4.95886-1.29187a58.737,58.737,0,0,1,6.06177-.99231,40.18389,40.18389,0,0,0,6.32813-1.2041c3.24878-1.28333-.22058-.67346-5.2373.37561-1.2533.26685-2.60486.55469-3.97314.84619-1.37793.24768-2.77283.49854-4.10217.73755-2.65906.47363-5.05859.88489-6.54846,1.075,4.95886-1.10645,8.42346-1.6554,11.99133-2.411,3.5614-.78235,7.26245-1.61353,12.73865-3.06274-3.08337,1.67346,12.36621-1.83655,14.84106-2.92126-2.47375.611-4.93323,1.21838-7.407,1.82947,5.9563-1.963-4.21887-.01477,4.85181-2.43445-.0116.18091,1.49866-.09412,3.49377-.52063.99573-.22083,2.115-.469,3.22607-.71533,1.10962-.2522,2.1936-.56787,3.15-.80518,11.77075-3.02966,6.84937-2.0553,14.62805-4.41309.18616.1792.60535.26843,1.39.21594.19617-.01306.41516-.035.65906-.06665.13733-.02026.21558-.024.41943-.0647l.64038-.132c.89612-.1908,1.96387-.44177,3.22766-.76147A98.64291,98.64291,0,0,1,1920,12.90345V-.70751ZM238.06677,24.80616c-.65454-.594.63068-.88855,2.79156-1.04565,8.37085.38086,3.874,1.25781,7.0824,1.839C243.48236,25.38,242.78021,25.01526,238.06677,24.80616ZM312.345,31.60279c-2.17212-.33984-3.70026-.672-5.764-1.01086-1.03186-.16943-2.19769-.34058-3.64478-.51514-1.447-.17871-3.17517-.36182-5.33478-.47437-.301-.54858,2.23962-.62158,7.63593.03174-1.25348-.32751-2.47174-.65771-2.27429-.96826,9.98749,1.03638,6.38855,1.3031,4.62708,1.70276C309.13074,30.77991,313.22339,31.22156,312.345,31.60279Zm35.15051,2.31531C337.19568,32.027,331.85,32.88,322.46967,31.963c-3.04962-1.01843,6.62445-.43127,12.75836.15808C339.63147,32.54676,349.94745,33.48548,347.49554,33.9181Zm5.03119.29736c.24786-.92346,8.98456.20276,12.87134.17737C376.102,36.20838,363.86676,35.87281,352.52673,34.21546Zm362.60693.364q-3.763.12048-7.53229.24084l.14569-.96533C714.37561,33.57068,715.93823,33.92579,715.13367,34.57947ZM913.42053,23.98719a41.13546,41.13546,0,0,1-7.42322-.49854,18.08718,18.08718,0,0,0,4.47552-.71252q2.37653-.0813,4.76093-.1582a26.46454,26.46454,0,0,1-4.14581.238C909.08954,23.45386,922.56134,23.27906,913.42053,23.98719Zm8.25226-1.57117q5.192-.15637,10.42719-.2937C928.239,22.53467,924.05621,22.85389,921.67279,22.416Zm34.5708-.40466c-1.7876-.09045-3.28455-.2135-4.83984-.33q3.89493-.07544,7.822-.14062A8.43547,8.43547,0,0,1,956.24359,22.01136Zm17.52582.01526c-.97046-.21436-1.73584-.44971-2.7818-.65674q3.68939-.046,7.41168-.083A38.45167,38.45167,0,0,1,973.76941,22.02662Zm30.13654-.14941c-4.11932-.27417,12.72168-.49158,20.17664-.40662C1028.88379,21.81543,1008.74371,21.69825,1003.90595,21.8772Zm37.55389.7168c9.75915-.07336,8.81982.71021,14.92029.92932C1052.23627,24.0636,1041.59876,23.15088,1041.45984,22.594Zm105.30029,3.05774c-4.10272-.19812-4.32739.10291-7.57886-.00562-5.76343-.19348-13.91815-.925-19.9632-1.12476-6.19855-.20374-8.07117.08008-12.597-.16455-5.22559-.23914-14.06384-.71167-14.85315-1.31189-4.50354-.13745-5.36407.166-10.09167.0011-9.27338-.5509,7.39581.13928,5.1178-.3584,7.2561.25977,15.78613.56506,24.20288.86646,8.41748.28748,16.72559.44556,23.54559.26062,1.97009.27075,6.83325.36292,7.40967.72107,4.15845-.38416,12.71191-.09131,22.69043.382,2.63178.32874.58478.91016,7.371,1.01526C1171.698,26.94178,1153.40259,26.00818,1146.76013,25.65174Zm308.71454,15.44568c-13.9519-.821-28.49615-1.15356-37.69983-1.98694,2.96137-.524,10.01282-.22119,22.78546.52905a6.24707,6.24707,0,0,1,2.57062-.0719,5.95883,5.95883,0,0,0,2.43658.3999c4.813.24866,6.00079-.15112,12.65619.34717,5.78387.43311,11.45764,1.37817,17.3559,1.86914C1472.68793,43.0221,1462.67108,41.51795,1455.47467,41.09742Zm24.93341,2.13013c.132-.2262,3.11774.02075,5.07929.09753.75885-.59814-4.50751-1.02966-4.70667-1.60193q3.272.21167,6.58459.42322C1495.11206,43.054,1491.57935,43.89844,1480.40808,43.22754ZM1598.15161,46.974c-4.01868.02441-8.09448.02563-12.51489-.02148-4.42-.06287-9.1825-.28638-14.577-.5365-3.109.01514-5.21527.15747-5.18182.57056-6.586-.18762-13.38135-.63135-20.45319-1.04517-7.071-.41479-14.41754-.8457-22.09656-1.29614-8.68664-.432-28.58423-.52515-27.5954-1.97278,35.80676,2.22156,75.27625,4.20789,118.04944,4.08411l-3.45764.09583C1606.1311,46.89429,1602.16943,46.93384,1598.15161,46.974Zm3.35584,11.29114c2.333-.14441,6.18372-.22949,10.06567-.32178,3.88269-.11047,7.79321-.12659,10.2417.07373C1616.88733,58.8368,1611.5603,58.34766,1601.50745,58.26514Zm24.76672-11.09106c-8.21777.11084-3.07153-.10229-2.30371-.48425q5.17181-.056,10.4104-.15967C1631.43555,46.72815,1628.14258,46.87305,1626.27417,47.17408Zm46.19287,9.66931c-4.683-.19531-.1947-.59619.16516-1.21228,8.40222-.29834,8.09412.54187,17.65588-.51526C1690.94885,55.95105,1676.75415,56.20057,1672.467,56.84339Zm49.1991-15.3075.02283-.01074.13916-.01318C1721.77246,41.52027,1721.72217,41.52735,1721.66614,41.53589Zm99.4519-3.76245c.25134-.67712,9.25073-2.52612,12.42163-2.85986C1833.297,35.58875,1824.29,37.4408,1821.118,37.77344Zm14.655-13.87866c-.671.11353-1.12585.17944-1.44556.21533.82922-.17749,1.6615-.36023,2.49207-.54C1836.50244,23.67481,1836.16089,23.78223,1835.77307,23.89478Z"/>
                </svg>