<?xml version="1.0" encoding="utf-8"?>
<!-- Generator: Adobe Illustrator 27.1.0, SVG Export Plug-In . SVG Version: 6.00 Build 0)  -->
<svg version="1.1" id="Layer_1" xmlns="http://www.w3.org/2000/svg" xmlns:xlink="http://www.w3.org/1999/xlink" x="0px" y="0px"
	 viewBox="0 0 150 181" style="enable-background:new 0 0 150 181;" xml:space="preserve">
<style type="text/css">
	.st0{fill:#E7266A;}
	.st1{fill:#37474F;}
	.st2{clip-path:url(#SVGID_00000176748938088088844310000016457197919608187543_);}
	.st3{fill:#EBEFF2;}
	.st4{fill:#CDD5D8;}
	.st5{opacity:0.68;fill:#F2F2F2;}
	.st6{fill:#FFFFFF;}
	.st7{fill:#15C586;}
	.st8{fill:#17DC96;}
	
		.st9{fill-rule:evenodd;clip-rule:evenodd;fill:none;stroke:#FFFFFF;stroke-width:1.7151;stroke-linecap:round;stroke-linejoin:round;stroke-miterlimit:10;}
	.st10{fill:#484F59;}
	.st11{fill:none;stroke:#FFFFFF;stroke-width:1.7151;stroke-linecap:round;stroke-linejoin:round;stroke-miterlimit:10;}
</style>
<g>
	<g>
		<g>
			<g>
				<g>
					<g>
						
							<ellipse transform="matrix(0.2036 -0.979 0.979 0.2036 -11.3884 119.5934)" class="st0" cx="67.82" cy="66.8" rx="66.33" ry="66.33"/>
					</g>
				</g>
				<g>
					<g>
						<path class="st1" d="M79.99,172.58c-35.61,0-64.58-28.97-64.58-64.58c0-0.6,0.49-1.08,1.08-1.08c0.6,0,1.08,0.49,1.08,1.08
							c0,34.41,28,62.41,62.41,62.41c0.6,0,1.08,0.49,1.08,1.08C81.07,172.1,80.58,172.58,79.99,172.58z"/>
					</g>
				</g>
			</g>
		</g>
		<g>
			<g>
				<g>
					<defs>
						<circle id="SVGID_1_" cx="77.84" cy="104.88" r="75.16"/>
					</defs>
					<clipPath id="SVGID_00000033334144071500145750000008458790427022376076_">
						<use xlink:href="#SVGID_1_"  style="overflow:visible;"/>
					</clipPath>
					<g style="clip-path:url(#SVGID_00000033334144071500145750000008458790427022376076_);">
						
							<ellipse transform="matrix(0.0245 -0.9997 0.9997 0.0245 -68.9413 226.3051)" class="st3" cx="81.49" cy="148.48" rx="74.48" ry="74.48"/>
						<path class="st4" d="M149.25,117.55c-3.15-1.13-35.46-12.29-44.64,4.1c-9.63,17.2-24.47,11.19-22.83,31.18
							c1.64,19.99,14.22,33.82,33.06,34.88c21.65,1.22-24.73,24.84-9.44,31.32C144.31,206.44,168.01,160.87,149.25,117.55z"/>
						<path class="st4" d="M53.33,79.52c0,0,32.28,4.23,31.38,16.11c-0.9,11.88-8.61,8.39-20.47,13.08
							c-11.87,4.68-15.54-1.53-23.48,7.52s-26.48,0.13-26.48,0.13S23.25,91.82,53.33,79.52z"/>
						<path class="st4" d="M7.27,148.26c0,0,24.44-0.55,29.86,17.62S50.57,178.6,54.67,187c1.16,2.36,0.49,5.06-1.06,7.71
							c-5.97,10.2-20.12,11.79-28.43,3.38C16.79,189.6,7.83,174.44,7.27,148.26z"/>
						<path class="st5" d="M137.65,197.39c-27.02,31.02-74.06,34.26-105.08,7.24c78.19,9.8,114.14-57.18,97.83-112.32
							C161.42,119.33,164.66,166.38,137.65,197.39z"/>
					</g>
				</g>
			</g>
		</g>
		<g>
			<g>
				<g>
					<path class="st1" d="M4.48,110.32c-0.17,0.13-0.38,0.21-0.6,0.21c-0.6,0.03-1.1-0.44-1.13-1.04c-0.12-2.78-0.08-5.61,0.12-8.4
						c0.04-0.6,0.56-1.05,1.16-1.01c0.6,0.04,1.05,0.56,1.01,1.16c-0.19,2.71-0.22,5.46-0.11,8.16
						C4.93,109.77,4.76,110.11,4.48,110.32z"/>
				</g>
			</g>
			<path class="st1" d="M19.53,150.35c-6.99-9.33-11.55-19.83-13.56-31.23c-0.1-0.59-0.67-0.98-1.26-0.88
				c-0.59,0.11-0.98,0.67-0.88,1.26c1.86,10.51,5.83,20.27,11.8,29.1c0.03,0.08,0.05,0.16,0.1,0.24
				c5.75,8.29,12.95,15.23,21.4,20.65c0.39,0.25,0.88,0.22,1.24-0.04c0.1-0.08,0.19-0.17,0.26-0.28c0.32-0.51,0.17-1.18-0.33-1.5
				C31.06,163.01,24.75,157.19,19.53,150.35C19.53,150.35,19.53,150.35,19.53,150.35z"/>
		</g>
	</g>
	<g>
		<path class="st6" d="M75.67,61.11l-0.39,93.85c-0.01,3.48,12.16,2.64,11.99-0.29l-5.51-94.82L75.67,61.11z"/>
		<path class="st7" d="M75.67,61.11l-0.39,93.85c-0.01,3.48,12.16,2.64,11.99-0.29l-5.51-94.82L75.67,61.11z"/>
		<g>
			<path class="st6" d="M73.89,65.31c5.56,9.16,19.85,30.48,37.29,39.59c0,0-14.62-26.96-35.73-41.34
				C74.53,62.93,73.3,64.33,73.89,65.31z"/>
			<polygon class="st8" points="111.17,104.89 104.69,100.88 107.03,98.02 			"/>
		</g>
		<path class="st6" d="M71.01,58.67l8.78-4.5c2.43-1.25,5.17,0.06,5.48,2.61l0,0c0.21,1.69-0.75,3.43-2.36,4.27l-9.16,4.77
			L71.01,58.67z"/>
		<path class="st4" d="M76.28,63.66c-0.07,2.06-1.53,3.08-3.25,2.26c-1.72-0.82-3.06-3.15-2.99-5.22c0.07-2.06,1.53-3.08,3.25-2.26
			C75.02,59.26,76.36,61.6,76.28,63.66z"/>
		<g>
			<path class="st6" d="M22.86,85.37c0.31-0.01,15.47-12.13,25.06-16.41c7.5-3.35,17.92-5.68,22.11-6.54
				c0.41-0.08,0.56,0.56,0.19,0.82c-4.4,3.12-16.33,11.45-21.34,13.88C42.68,80.14,22.86,85.37,22.86,85.37z"/>
			<polygon class="st8" points="22.86,85.37 32.43,78.4 33.34,82.44 			"/>
		</g>
	</g>
	<g>
		<path class="st6" d="M73.91,57.68c-0.18,1.13-1.64,1.35-1.96,0.3c-1.78-5.76-4.63-16.91-3.53-26.18
			c1.56-13.13,3.91-28.66,3.91-28.66s3.94,23.55,4.14,31.01C76.61,39.49,74.9,51.36,73.91,57.68z"/>
		<polygon class="st8" points="72.33,3.14 70.89,13.04 73.89,12.92 		"/>
	</g>
	<path class="st8" d="M75.02,64.29c-0.26,1.99-1.88,2.94-3.61,2.12c-1.73-0.82-2.92-3.09-2.66-5.08c0.26-1.99,1.88-2.94,3.61-2.12
		C74.09,60.03,75.28,62.31,75.02,64.29z"/>
	<g>
		<path class="st8" d="M39.61,31.07l6.83-0.09c0.05,0,0.08,0.04,0.06,0.09l-3.22,8.86c-0.02,0.04,0.02,0.09,0.06,0.09l6.11-0.14
			c0.06,0,0.09,0.06,0.05,0.11L38.7,52.45c-0.04,0.05-0.13,0.01-0.11-0.06l1.86-9.24c0.01-0.04-0.02-0.08-0.06-0.08l-4.44,0.02
			c-0.04,0-0.08-0.04-0.06-0.08l3.67-11.9C39.55,31.09,39.58,31.07,39.61,31.07z"/>
		<circle class="st9" cx="42" cy="40.6" r="16"/>
	</g>
	<g>
		<g>
			<path class="st1" d="M84.86,173.7c-3.33,0-6.03-2.71-6.03-6.03c0-3.33,2.71-6.03,6.03-6.03c3.33,0,6.03,2.71,6.03,6.03
				C90.9,170.99,88.19,173.7,84.86,173.7z M84.86,162.98c-2.58,0-4.68,2.1-4.68,4.68c0,2.58,2.1,4.68,4.68,4.68
				c2.58,0,4.68-2.1,4.68-4.68C89.55,165.08,87.45,162.98,84.86,162.98z"/>
		</g>
		<g>
			<path class="st10" d="M90.88,157.03v-25.2l21.82,12.6L90.88,157.03z M93.9,137.07v14.73l12.76-7.36L93.9,137.07z"/>
		</g>
		<g>
			<path class="st1" d="M85.68,142.78l0.11,0.78c-0.49,0.07-0.72,0.64-1,1.51c-0.3,0.89-0.63,1.9-1.65,2.04
				c-1.01,0.14-1.61-0.74-2.14-1.52c-0.51-0.76-0.89-1.25-1.38-1.18c-0.49,0.07-0.71,0.64-1,1.51c-0.3,0.89-0.63,1.9-1.64,2.04
				c-1.01,0.14-1.61-0.74-2.14-1.52c-0.51-0.76-0.88-1.25-1.37-1.18c-0.49,0.07-0.71,0.64-1,1.51c-0.3,0.89-0.63,1.9-1.64,2.04
				c-1.01,0.14-1.61-0.74-2.13-1.52c-0.51-0.76-0.88-1.25-1.37-1.18c-0.49,0.07-0.71,0.64-1,1.51c-0.3,0.89-0.63,1.9-1.64,2.04
				c-1.01,0.14-1.61-0.74-2.14-1.52c-0.51-0.76-0.88-1.25-1.37-1.18c-0.49,0.07-0.71,0.64-1,1.51c-0.3,0.89-0.63,1.9-1.64,2.04
				c-1.01,0.14-1.61-0.74-2.13-1.52c-0.51-0.76-0.88-1.25-1.37-1.18c-0.49,0.07-0.71,0.64-1,1.51c-0.3,0.89-0.63,1.9-1.64,2.04
				c-1.01,0.14-1.61-0.74-2.13-1.52c-0.51-0.76-0.88-1.25-1.37-1.18c-0.49,0.07-0.71,0.64-1,1.51c-0.3,0.89-0.63,1.9-1.64,2.04
				c-1.01,0.14-1.61-0.74-2.13-1.52c-0.51-0.76-0.88-1.25-1.37-1.18l-0.11-0.78c1.01-0.14,1.61,0.74,2.13,1.52
				c0.51,0.76,0.88,1.25,1.37,1.18c0.49-0.07,0.71-0.64,1-1.51c0.3-0.89,0.63-1.9,1.64-2.04c1.01-0.14,1.61,0.74,2.13,1.52
				c0.51,0.76,0.88,1.25,1.37,1.18c0.49-0.07,0.71-0.64,1-1.51c0.3-0.89,0.63-1.9,1.64-2.04c1.01-0.14,1.61,0.74,2.13,1.52
				c0.51,0.76,0.88,1.25,1.37,1.18c0.49-0.07,0.71-0.64,1-1.51c0.3-0.89,0.63-1.9,1.64-2.04c1.01-0.14,1.61,0.74,2.13,1.52
				c0.51,0.76,0.88,1.25,1.37,1.18c0.49-0.07,0.71-0.64,1-1.51c0.3-0.89,0.63-1.9,1.64-2.04c1.01-0.14,1.61,0.74,2.14,1.52
				c0.51,0.76,0.88,1.25,1.37,1.18c0.49-0.07,0.71-0.64,1-1.51c0.3-0.89,0.63-1.9,1.64-2.04c1.01-0.14,1.61,0.74,2.13,1.52
				c0.51,0.76,0.88,1.25,1.37,1.18c0.49-0.07,0.71-0.64,1-1.51c0.3-0.89,0.63-1.9,1.64-2.04c1.01-0.14,1.61,0.74,2.14,1.52
				c0.51,0.76,0.89,1.25,1.38,1.18c0.49-0.07,0.72-0.64,1-1.51C84.33,143.93,84.67,142.92,85.68,142.78z"/>
		</g>
	</g>
	<g>
		<path class="st11" d="M93.27,50.77l13-5.11c0.5-0.14,0.99-0.35,1.46-0.63c2.01-1.21,3.1-3.6,2.67-5.91
			c-0.45-2.43-2.24-4.11-4.35-4.61c-2.16-0.51-4.48,0.41-5.51,2.38c-0.51,0.97-0.77,2.3-0.24,4.02c1.33,4.29,7.82,1.22,4.88-2.87"/>
		<path class="st11" d="M95.36,56.08l23.9-10.52c0.5-0.14,0.99-0.35,1.46-0.63c2.01-1.21,3.1-3.6,2.67-5.91
			c-0.45-2.43-2.24-4.11-4.35-4.61c-2.16-0.51-4.48,0.41-5.51,2.38c-0.51,0.97-0.77,2.3-0.24,4.02c1.33,4.29,7.82,1.22,4.88-2.87"/>
	</g>
	<g>
		<g>
			
				<rect x="24.06" y="64.4" transform="matrix(0.7071 -0.7071 0.7071 0.7071 -39.5723 37.2214)" class="st6" width="2.18" height="3.97"/>
		</g>
		<g>
			
				<rect x="16.92" y="57.26" transform="matrix(0.7072 -0.707 0.707 0.7072 -36.6087 30.0704)" class="st6" width="2.18" height="3.96"/>
		</g>
		<g>
			
				<rect x="16.02" y="65.29" transform="matrix(0.7071 -0.7072 0.7072 0.7071 -41.666 32.1767)" class="st6" width="3.96" height="2.18"/>
		</g>
		<g>
			
				<rect x="23.16" y="58.15" transform="matrix(0.7071 -0.7071 0.7071 0.7071 -34.523 35.1299)" class="st6" width="3.97" height="2.18"/>
		</g>
	</g>
</g>
</svg>
