<?xml version="1.0" encoding="utf-8"?>
<!-- Generator: Adobe Illustrator 27.0.0, SVG Export Plug-In . SVG Version: 6.00 Build 0)  -->
<svg version="1.1" id="Layer_1" xmlns="http://www.w3.org/2000/svg" xmlns:xlink="http://www.w3.org/1999/xlink" x="0px" y="0px"
	 viewBox="0 0 150 181" style="enable-background:new 0 0 150 181;" xml:space="preserve">
<style type="text/css">
	.st0{fill:#37474F;}
	.st1{fill:#E7266A;}
	.st2{fill:#F7F8FC;}
	.st3{fill:#FFFFFF;}
	.st4{fill:#CDD5D8;}
	.st5{fill:#CDD5D7;}
	.st6{fill:#969696;}
	.st7{fill:#17DC96;}
	.st8{fill:#15C586;}
	.st9{fill:#30363D;}
</style>
<g>
	<g>
		<path class="st0" d="M133.71,161.98l0.36,2.21c-1,0.16-1.46,2.27-1.87,4.12c-0.56,2.55-1.2,5.45-3.7,5.85
			c-2.5,0.4-4.02-2.14-5.35-4.39c-0.97-1.63-2.07-3.48-3.07-3.32c-1,0.16-1.46,2.26-1.87,4.12c-0.56,2.55-1.2,5.45-3.69,5.85
			c-2.5,0.4-4.01-2.14-5.35-4.39c-0.97-1.63-2.07-3.48-3.07-3.32c-1,0.16-1.46,2.26-1.86,4.12c-0.56,2.55-1.2,5.45-3.69,5.85
			c-2.5,0.4-4.01-2.14-5.34-4.39c-0.97-1.63-2.07-3.48-3.06-3.32l-0.36-2.21c2.5-0.4,4.01,2.14,5.34,4.39
			c0.97,1.63,2.07,3.48,3.06,3.32c1-0.16,1.46-2.26,1.86-4.12c0.56-2.55,1.2-5.45,3.69-5.85c2.5-0.4,4.01,2.14,5.35,4.39
			c0.97,1.63,2.07,3.48,3.07,3.32c0.99-0.16,1.46-2.26,1.86-4.12c0.56-2.55,1.2-5.45,3.7-5.85c2.5-0.4,4.02,2.14,5.35,4.39
			c0.97,1.63,2.07,3.48,3.07,3.32c1-0.16,1.46-2.27,1.87-4.12C130.57,165.28,131.21,162.39,133.71,161.98z"/>
	</g>
	<g>
		<g>
			<g>
				<path class="st0" d="M86.98,167.11c0.61,0,1.11-0.49,1.11-1.11s-0.49-1.11-1.11-1.11c-18.98,0-37.35-6.8-51.72-19.15
					c-0.47-0.4-1.16-0.35-1.56,0.12c-0.4,0.46-0.35,1.16,0.12,1.56C48.59,160.12,67.48,167.11,86.98,167.11z"/>
			</g>
		</g>
		<g>
			<g>
				<path class="st0" d="M86.98,181.12c0.61,0,1.11-0.49,1.11-1.11c0-0.61-0.49-1.11-1.11-1.11c-16.53,0-32.78-4.37-46.98-12.65
					c-0.52-0.31-1.2-0.13-1.51,0.4c-0.31,0.53-0.13,1.2,0.4,1.51C53.43,176.65,70.06,181.12,86.98,181.12z"/>
			</g>
		</g>
		<g>
			<g>
				<path class="st0" d="M25.41,158.32c0.31,0,0.62-0.13,0.84-0.38c0.4-0.46,0.35-1.16-0.12-1.56c-5.23-4.49-9.97-9.57-14.08-15.09
					c-0.36-0.49-1.06-0.59-1.55-0.22c-0.49,0.37-0.59,1.06-0.22,1.55c4.21,5.65,9.06,10.85,14.41,15.44
					C24.9,158.23,25.15,158.32,25.41,158.32z"/>
			</g>
		</g>
	</g>
	<g>
		<g>
			<g>
				<g>
					
						<ellipse transform="matrix(0.1587 -0.9873 0.9873 0.1587 -9.42 124.885)" class="st1" cx="68.57" cy="67.97" rx="67.72" ry="67.72"/>
				</g>
			</g>
		</g>
	</g>
	<g>
		<path class="st0" d="M150,92.64l-15.29,18.95l-8.77-22.72L150,92.64z M135.67,105.45l8.53-10.58l-13.43-2.1L135.67,105.45z"/>
	</g>
	<g>
		<path class="st2" d="M49.24,114.26l-1.52,0.19c-0.12-0.95-1.23-1.4-2.9-1.98c-1.72-0.6-3.67-1.27-3.91-3.24
			c-0.25-1.97,1.48-3.1,3-4.1c1.48-0.97,2.44-1.68,2.32-2.63c-0.12-0.95-1.22-1.4-2.9-1.98c-1.72-0.59-3.67-1.27-3.91-3.23
			c-0.25-1.96,1.48-3.1,3-4.1c1.48-0.97,2.44-1.68,2.32-2.63c-0.12-0.95-1.22-1.4-2.9-1.98c-1.72-0.59-3.67-1.27-3.91-3.23
			c-0.25-1.96,1.48-3.1,3-4.1c1.48-0.97,2.44-1.68,2.32-2.63c-0.12-0.95-1.22-1.4-2.9-1.98c-1.72-0.59-3.67-1.27-3.92-3.23
			s1.48-3.1,3-4.1c1.48-0.97,2.44-1.68,2.32-2.63c-0.12-0.95-1.22-1.4-2.9-1.98c-1.72-0.59-3.67-1.27-3.91-3.23
			c-0.25-1.96,1.48-3.09,3-4.09c1.48-0.97,2.44-1.68,2.32-2.63c-0.12-0.95-1.22-1.4-2.9-1.98c-1.72-0.59-3.67-1.27-3.91-3.23
			c-0.25-1.96,1.48-3.09,3-4.09c1.48-0.97,2.44-1.68,2.32-2.63c-0.12-0.95-1.22-1.4-2.9-1.97c-1.72-0.59-3.67-1.27-3.92-3.23
			c-0.25-1.96,1.48-3.09,3-4.09c1.48-0.97,2.44-1.68,2.32-2.62l1.52-0.19c0.25,1.96-1.48,3.09-3,4.09
			c-1.48,0.97-2.44,1.68-2.32,2.62c0.12,0.95,1.22,1.4,2.9,1.97c1.72,0.59,3.67,1.27,3.91,3.23c0.25,1.96-1.48,3.09-3,4.09
			c-1.48,0.97-2.44,1.68-2.32,2.63c0.12,0.95,1.22,1.4,2.9,1.98c1.72,0.59,3.67,1.27,3.91,3.23c0.25,1.96-1.48,3.09-3,4.09
			c-1.48,0.97-2.44,1.68-2.32,2.63c0.12,0.95,1.22,1.4,2.9,1.97c1.72,0.59,3.67,1.27,3.92,3.23c0.25,1.96-1.48,3.1-3,4.1
			c-1.48,0.97-2.44,1.68-2.32,2.63c0.12,0.95,1.22,1.4,2.9,1.98c1.72,0.59,3.67,1.27,3.91,3.23c0.25,1.96-1.48,3.1-3,4.1
			c-1.48,0.97-2.44,1.68-2.32,2.63c0.12,0.95,1.22,1.4,2.9,1.98c1.72,0.59,3.67,1.27,3.91,3.23c0.25,1.96-1.48,3.1-3,4.1
			c-1.48,0.97-2.44,1.68-2.32,2.63c0.12,0.95,1.22,1.4,2.9,1.98c1.72,0.59,3.67,1.27,3.92,3.23c0.25,1.97-1.48,3.1-3,4.1
			c-1.48,0.97-2.44,1.68-2.32,2.63c0.12,0.95,1.23,1.4,2.9,1.98C47.05,111.62,48.99,112.29,49.24,114.26z"/>
	</g>
	<g>
		<path class="st0" d="M5.74,120.4l11.04,0.87l-0.87,11.04l-11.04-0.86L5.74,120.4z M15.45,122.41l-8.57-0.67l-0.67,8.57l8.57,0.67
			L15.45,122.41z"/>
	</g>
	<g>
		<g>
			
				<rect x="96.72" y="21.84" transform="matrix(0.0779 -0.997 0.997 0.0779 66.3047 119.2415)" class="st3" width="1.79" height="3.89"/>
		</g>
		<g>
			
				<rect x="106.58" y="22.61" transform="matrix(0.0782 -0.9969 0.9969 0.0782 74.5902 129.7791)" class="st3" width="1.79" height="3.89"/>
		</g>
		<g>
			
				<rect x="100.99" y="18.34" transform="matrix(0.0782 -0.9969 0.9969 0.0782 75.707 120.3437)" class="st3" width="3.89" height="1.79"/>
		</g>
		<g>
			
				<rect x="100.21" y="28.2" transform="matrix(0.0782 -0.9969 0.9969 0.0782 65.1571 128.6667)" class="st3" width="3.89" height="1.79"/>
		</g>
	</g>
	<g>
		<g>
			<g>
				<path class="st1" d="M131.77,176.37l9.04-16.94l-22.89-12.22l-9.41,5.86l0.37,11.08L131.77,176.37z M112.7,157.23
					c-0.73-0.39-1.01-1.3-0.62-2.04c0.39-0.73,1.31-1.01,2.04-0.62c0.73,0.39,1.01,1.3,0.62,2.04
					C114.35,157.35,113.43,157.62,112.7,157.23z"/>
				<g>
					<polygon class="st3" points="128.33,157.9 129.76,158.33 121.51,166.4 120.08,165.97 					"/>
					<path class="st3" d="M121.3,161.39c1.58,0.48,2.59-0.33,3.02-1.77c0.44-1.44,0.05-2.67-1.53-3.15
						c-1.58-0.48-2.59,0.33-3.03,1.77C119.33,159.67,119.72,160.91,121.3,161.39z M121.53,158.9c0.17-0.56,0.38-1.24,0.95-1.3
						c0.1-0.01,0.2,0,0.31,0.03c0.79,0.24,0.52,1.17,0.35,1.73c-0.18,0.57-0.39,1.25-0.95,1.31c-0.1,0.01-0.21,0-0.31-0.03
						c-0.2-0.06-0.35-0.18-0.44-0.35C121.22,159.9,121.38,159.37,121.53,158.9z"/>
					<path class="st3" d="M126.91,167.8c1.58,0.48,2.59-0.33,3.02-1.77c0.44-1.44,0.05-2.68-1.53-3.16
						c-1.58-0.48-2.59,0.33-3.03,1.77C124.94,166.08,125.33,167.31,126.91,167.8z M126.84,164.96c0.17-0.55,0.37-1.24,0.95-1.29
						c0.1-0.01,0.2,0,0.31,0.03c0.21,0.06,0.55,0.25,0.55,0.81c0,0.3-0.11,0.63-0.2,0.93c-0.17,0.56-0.38,1.24-0.95,1.3
						c-0.1,0.01-0.2,0-0.3-0.03c-0.2-0.06-0.35-0.18-0.45-0.35C126.53,165.95,126.7,165.4,126.84,164.96z"/>
				</g>
			</g>
			<g>
				<path class="st4" d="M108.09,136.37c1.82,0.57,2.7,2.42,2.14,4.49c-0.48,1.79-2.7,3.04-5.93,3.33
					c-0.89,0.08-1.82,0.08-2.76,0.01c0.46,6.24,11.04,10.98,11.16,11.03c0.17,0.07,0.24,0.27,0.17,0.43
					c-0.07,0.17-0.27,0.24-0.43,0.17c-0.04-0.01-3.53-1.57-6.63-4.06c-3.12-2.5-4.79-5.1-4.93-7.64c-4.46-0.51-9.03-2.73-10.94-6.78
					c-0.08-0.16-0.01-0.36,0.16-0.44c0.17-0.08,0.36-0.01,0.44,0.16c1.8,3.81,6.11,5.9,10.34,6.4c0.03-0.64,0.16-1.28,0.39-1.9
					c1.39-3.81,3.76-5.36,5.75-5.36C107.39,136.21,107.75,136.26,108.09,136.37z M104.24,143.53c2.9-0.26,4.95-1.35,5.35-2.84
					c0.54-2.01-0.47-3.3-1.7-3.69c-1.83-0.58-4.5,0.67-6.01,4.8c-0.22,0.59-0.33,1.17-0.35,1.74
					C102.46,143.61,103.37,143.61,104.24,143.53z"/>
			</g>
			<g>
				<path class="st4" d="M109.06,151.79c-0.08,0-0.16,0.03-0.22,0.09c-0.14,0.12-0.14,0.33-0.02,0.47c1.12,1.24,4.03,2.86,4.15,2.92
					c0.16,0.09,0.36,0.03,0.45-0.13c0.09-0.16,0.03-0.36-0.13-0.45c-0.03-0.02-2.94-1.64-3.99-2.79
					C109.23,151.83,109.15,151.79,109.06,151.79z"/>
			</g>
		</g>
		<g>
			<g>
				
					<rect x="24.91" y="65.98" transform="matrix(0.9937 -0.1124 0.1124 0.9937 -11.6041 9.7385)" class="st2" width="111.36" height="83.65"/>
				
					<rect x="20.66" y="66.22" transform="matrix(0.9937 -0.1124 0.1124 0.9937 -7.407 9.0227)" class="st5" width="111.36" height="7.99"/>
				
					<rect x="47.18" y="67.78" transform="matrix(0.9937 -0.1124 0.1124 0.9937 -7.3332 9.4556)" class="st3" width="66.07" height="4"/>
				<path class="st0" d="M26.83,75.81c0.1,0.88-0.53,1.67-1.41,1.77c-0.88,0.1-1.67-0.54-1.77-1.41c-0.1-0.88,0.53-1.67,1.41-1.77
					C25.94,74.31,26.73,74.94,26.83,75.81z"/>
				<path class="st0" d="M31.86,75.24c0.1,0.88-0.53,1.67-1.41,1.77c-0.88,0.1-1.67-0.53-1.77-1.41c-0.1-0.88,0.53-1.67,1.41-1.77
					C30.97,73.74,31.76,74.37,31.86,75.24z"/>
				<path class="st0" d="M36.89,74.68c0.1,0.88-0.53,1.67-1.41,1.77c-0.88,0.1-1.67-0.53-1.77-1.41c-0.1-0.88,0.53-1.67,1.41-1.77
					C36,73.17,36.79,73.8,36.89,74.68z"/>
			</g>
			
				<rect x="28.8" y="84.1" transform="matrix(0.9937 -0.1124 0.1124 0.9937 -10.9025 5.5989)" class="st4" width="30.84" height="30.84"/>
			<g>
				
					<rect x="31.17" y="119.31" transform="matrix(0.9937 -0.1124 0.1124 0.9937 -13.2895 5.5682)" class="st6" width="23.17" height="2.72"/>
				
					<rect x="31.94" y="125.91" transform="matrix(0.9937 -0.1124 0.1124 0.9937 -14.0018 6.1275)" class="st4" width="30.84" height="2.72"/>
				
					<rect x="32.5" y="130.98" transform="matrix(0.9937 -0.1124 0.1124 0.9937 -14.5787 6.0239)" class="st4" width="27.3" height="2.72"/>
			</g>
			<g>
				
					<rect x="33.54" y="137.89" transform="matrix(0.9937 -0.1124 0.1124 0.9937 -15.6397 5.9201)" class="st6" width="22.31" height="7.62"/>
			</g>
			<g>
				
					<rect x="63.88" y="80.13" transform="matrix(0.9937 -0.1124 0.1124 0.9937 -10.2345 9.5158)" class="st4" width="30.84" height="30.84"/>
				<g>
					
						<rect x="66.25" y="115.35" transform="matrix(0.9937 -0.1124 0.1124 0.9937 -12.6215 9.4851)" class="st6" width="23.17" height="2.72"/>
					
						<rect x="67.02" y="121.94" transform="matrix(0.9937 -0.1124 0.1124 0.9937 -13.3338 10.0444)" class="st4" width="30.84" height="2.72"/>
					
						<rect x="67.58" y="127.01" transform="matrix(0.9937 -0.1124 0.1124 0.9937 -13.9107 9.9409)" class="st4" width="27.3" height="2.72"/>
				</g>
				<g>
					
						<rect x="68.62" y="133.92" transform="matrix(0.9937 -0.1124 0.1124 0.9937 -14.9718 9.837)" class="st6" width="22.31" height="7.62"/>
				</g>
			</g>
			<g>
				
					<rect x="98.96" y="76.16" transform="matrix(0.9937 -0.1124 0.1124 0.9937 -9.5666 13.4328)" class="st4" width="30.84" height="30.84"/>
				<g>
					
						<rect x="101.33" y="111.38" transform="matrix(0.9937 -0.1124 0.1124 0.9937 -11.9535 13.4021)" class="st6" width="23.17" height="2.72"/>
					
						<rect x="102.1" y="117.98" transform="matrix(0.9937 -0.1124 0.1124 0.9937 -12.6658 13.9613)" class="st4" width="30.84" height="2.72"/>
					
						<rect x="102.66" y="123.04" transform="matrix(0.9937 -0.1124 0.1124 0.9937 -13.2427 13.8578)" class="st4" width="27.3" height="2.72"/>
				</g>
				<g>
					
						<rect x="103.7" y="129.95" transform="matrix(0.9937 -0.1124 0.1124 0.9937 -14.3038 13.754)" class="st7" width="22.31" height="7.62"/>
				</g>
			</g>
			<g>
				<g>
					<g>
						<g>
							<g>
								<path class="st7" d="M82.77,22.04c16.25,1.84,27.93,16.49,26.09,32.74c-0.82,7.26-4.21,13.59-9.15,18.23l5.39,13.77
									l-11.57-9.31c-5.14,2.79-11.15,4.1-17.4,3.4c-16.24-1.84-27.92-16.5-26.08-32.74C51.88,31.88,66.53,20.2,82.77,22.04z"/>
								<path class="st8" d="M82.77,22.04c0.1,0.01,0.19,0.03,0.3,0.04l-6.65,58.81c-0.1-0.01-0.2-0.02-0.3-0.03
									c-16.24-1.84-27.92-16.5-26.08-32.74C51.88,31.88,66.53,20.2,82.77,22.04z"/>
							</g>
						</g>
					</g>
				</g>
				<path class="st2" d="M92.53,41.81l-23.35,2.64l-1.26-2.79c-0.05-0.14-0.12-0.27-0.2-0.38c0,0-0.01-0.01-0.01-0.01
					c-0.05-0.07-0.11-0.13-0.16-0.18c-0.03-0.02-0.06-0.05-0.09-0.07c-0.03-0.03-0.07-0.06-0.11-0.09c-0.05-0.04-0.11-0.07-0.16-0.1
					c-0.02-0.01-0.04-0.02-0.06-0.03c-0.32-0.14-0.68-0.17-1.03-0.06l-3.23,0.64c-0.8,0.14-1.33,0.89-1.2,1.69
					c0.13,0.8,0.89,1.33,1.69,1.2l2.33-0.46l7.83,17.49c-0.43,0.67-0.67,1.47-0.57,2.33c0.22,1.93,1.96,3.32,3.89,3.1
					c1.41-0.16,2.52-1.13,2.94-2.4l4.67-0.55c0.69,1.15,2,1.86,3.41,1.7c1.93-0.22,3.32-1.96,3.1-3.89
					c-0.22-1.93-1.96-3.32-3.89-3.11c-1.41,0.16-2.52,1.14-2.94,2.4l-4.67,0.54c-0.69-1.15-2-1.86-3.41-1.7
					c-0.01,0-0.02,0-0.03,0.01l-0.91-2.04l15.03-1.7c1.76-0.2,1.92-1.42,2.81-3.53l3.13-7.84C97.25,41.54,94.28,41.61,92.53,41.81z"
					/>
			</g>
		</g>
	</g>
	<g>
		
			<rect x="16.85" y="68.19" transform="matrix(0.9937 -0.1124 0.1124 0.9937 -8.2558 2.4688)" class="st2" width="1.84" height="12.55"/>
	</g>
	<g>
		
			<rect x="22.24" y="48.46" transform="matrix(0.9937 -0.1124 0.1124 0.9937 -6.4735 2.9756)" class="st2" width="1.84" height="20.9"/>
	</g>
	<g>
		<g>
			<polygon class="st9" points="81.81,143.82 95.74,139.29 109.68,134.76 105.15,148.69 100.63,162.63 95.72,153.1 88.28,160.54 
				83.9,156.15 91.34,148.72 			"/>
		</g>
	</g>
	<g>
		<g>
			<g>
				
					<rect x="113.47" y="88.94" transform="matrix(0.9926 -0.1215 0.1215 0.9926 -10.4158 14.5627)" class="st3" width="1.45" height="7.49"/>
			</g>
			<g>
				
					<rect x="110.45" y="91.96" transform="matrix(0.9926 -0.1215 0.1215 0.9926 -10.416 14.5626)" class="st3" width="7.49" height="1.45"/>
			</g>
		</g>
		<g>
			<path class="st3" d="M115.52,103.58c-2.91,0.36-5.78-0.44-8.09-2.25c-2.31-1.8-3.78-4.4-4.13-7.31
				c-0.35-2.91,0.44-5.78,2.25-8.09c1.81-2.31,4.4-3.78,7.31-4.13c2.91-0.36,5.78,0.44,8.09,2.25c2.31,1.81,3.78,4.4,4.14,7.31
				c0.36,2.91-0.44,5.78-2.25,8.09C121.03,101.75,118.43,103.22,115.52,103.58z M113.04,83.23c-2.52,0.31-4.78,1.58-6.34,3.58
				c-1.57,2-2.26,4.5-1.95,7.02c0.31,2.52,1.58,4.78,3.58,6.34c2,1.57,4.49,2.26,7.02,1.95c2.53-0.31,4.78-1.58,6.35-3.59
				c1.57-2,2.26-4.49,1.95-7.02c-0.31-2.52-1.58-4.78-3.59-6.34C118.05,83.62,115.56,82.93,113.04,83.23z"/>
		</g>
	</g>
</g>
</svg>
