<?xml version="1.0" encoding="utf-8"?>
<!-- Generator: Adobe Illustrator 27.0.0, SVG Export Plug-In . SVG Version: 6.00 Build 0)  -->
<svg version="1.1" id="Layer_1" xmlns="http://www.w3.org/2000/svg" xmlns:xlink="http://www.w3.org/1999/xlink" x="0px" y="0px"
	 viewBox="0 0 150 181" style="enable-background:new 0 0 150 181;" xml:space="preserve">
<style type="text/css">
	.st0{fill:#E7266A;}
	.st1{fill:#37474F;}
	.st2{fill:#FFFFFF;}
	.st3{fill:#30363D;}
	.st4{fill:#484F59;}
	.st5{fill:#CDD5D8;}
	.st6{fill:#D0DAE2;}
	.st7{fill:#17DC96;}
	.st8{fill:#15C586;}
</style>
<g>
	<g>
		<g>
			<g>
				<g>
					<g>
						
							<ellipse transform="matrix(0.1587 -0.9873 0.9873 0.1587 -9.4058 122.8741)" class="st0" cx="67.4" cy="66.96" rx="66.3" ry="66.3"/>
					</g>
				</g>
				<g>
					<g>
						<path class="st1" d="M127.9,143.87c-0.3,0-0.61-0.13-0.82-0.38c-0.39-0.46-0.34-1.14,0.11-1.53
							c5.13-4.4,9.77-9.38,13.81-14.79c0.36-0.48,1.04-0.58,1.52-0.22c0.48,0.36,0.58,1.04,0.22,1.52
							c-4.13,5.54-8.89,10.64-14.13,15.14C128.41,143.78,128.15,143.87,127.9,143.87z"/>
					</g>
				</g>
				<g>
					<g>
						
							<rect x="89.58" y="178.48" transform="matrix(0.7069 -0.7074 0.7074 0.7069 -100.7738 116.5337)" class="st1" width="1.26" height="2.73"/>
					</g>
					<g>
						
							<rect x="84.66" y="173.56" transform="matrix(0.7071 -0.7071 0.7071 0.7071 -98.7106 111.538)" class="st1" width="1.26" height="2.73"/>
					</g>
					<g>
						
							<rect x="83.92" y="179.22" transform="matrix(0.7071 -0.7071 0.7071 0.7071 -102.1925 112.9854)" class="st1" width="2.73" height="1.26"/>
					</g>
					<g>
						
							<rect x="88.84" y="174.3" transform="matrix(0.7071 -0.7071 0.7071 0.7071 -97.2712 115.0239)" class="st1" width="2.73" height="1.26"/>
					</g>
				</g>
			</g>
			<g>
				<g>
					<g>
						<path class="st1" d="M3.09,114.62c-0.17,0.13-0.38,0.21-0.6,0.21c-0.6,0.03-1.1-0.44-1.13-1.04
							c-0.12-2.78-0.08-5.61,0.12-8.39c0.04-0.6,0.56-1.05,1.16-1.01c0.6,0.04,1.05,0.56,1.01,1.16c-0.19,2.71-0.22,5.45-0.11,8.16
							C3.54,114.07,3.37,114.41,3.09,114.62z"/>
					</g>
				</g>
				<path class="st1" d="M18.13,154.63c-6.98-9.32-11.54-19.83-13.55-31.21c-0.1-0.59-0.67-0.98-1.26-0.88
					c-0.59,0.11-0.98,0.67-0.88,1.26c1.85,10.5,5.83,20.26,11.8,29.08c0.03,0.08,0.05,0.16,0.1,0.24
					c5.74,8.28,12.94,15.23,21.39,20.64c0.39,0.25,0.88,0.22,1.24-0.04c0.1-0.08,0.19-0.17,0.26-0.28c0.32-0.51,0.17-1.18-0.33-1.5
					C29.65,167.28,23.35,161.47,18.13,154.63C18.13,154.63,18.13,154.63,18.13,154.63z"/>
			</g>
		</g>
		<g>
			<g>
				<path class="st2" d="M27.73,25.99c-1.4,0-2.54-1.13-2.54-2.53c0-1.4,1.14-2.54,2.54-2.54c1.4,0,2.54,1.14,2.54,2.54
					C30.27,24.85,29.13,25.99,27.73,25.99z"/>
				
					<rect x="49.4" y="18.15" transform="matrix(0.7071 -0.7071 0.7071 0.7071 0.021 44.1401)" class="st2" width="7.78" height="7.78"/>
				<polygon class="st2" points="32.31,39.87 43.85,33.21 43.85,46.54 32.31,39.87 43.85,33.21 43.85,46.54 				"/>
				<g>
					<path class="st2" d="M18.02,65.44l-7-7l6.99-7l7,7L18.02,65.44z M12.57,58.44l5.44,5.44l5.44-5.44L18.01,53L12.57,58.44z"/>
				</g>
				<g>
					<path class="st2" d="M59.5,41.72v-9.45l8.18,4.72L59.5,41.72z M60.6,34.17v5.64l4.88-2.82L60.6,34.17z"/>
				</g>
				<g>
					<rect x="27.18" y="30.94" class="st2" width="1.1" height="16.68"/>
				</g>
				<g>
					<rect x="75.82" y="25.45" class="st2" width="1.1" height="19.32"/>
				</g>
				<g>
					<rect x="46" y="53.93" class="st2" width="1.1" height="8.08"/>
				</g>
				<g>
					<rect x="50.57" y="35.82" class="st2" width="1.1" height="19.32"/>
				</g>
			</g>
			<g>
				<path class="st3" d="M112.81,153.59L99.43,49.62c-0.25-1.91-2-3.27-3.91-3.02l-76.25,9.81c-1.91,0.25-3.27,2-3.02,3.91
					L29.63,164.3c0.25,1.91,2,3.27,3.91,3.02l76.25-9.81C111.7,157.26,113.06,155.51,112.81,153.59z"/>
				<path class="st4" d="M65.8,157.88c0.18,1.44,1.5,2.45,2.93,2.26l5.2-0.67c1.44-0.18,2.45-1.5,2.26-2.93l0,0
					c-0.18-1.44-1.5-2.45-2.93-2.26l-5.2,0.67C66.63,155.13,65.61,156.45,65.8,157.88L65.8,157.88z"/>
				
					<rect x="26.09" y="61.53" transform="matrix(0.9918 -0.1276 0.1276 0.9918 -13.1251 9.1118)" class="st2" width="76.88" height="90.85"/>
				<g>
					
						<rect x="26.65" y="67.1" transform="matrix(0.9918 -0.1281 0.1281 0.9918 -8.6067 8.3968)" class="st0" width="68.6" height="7.97"/>
					
						<rect x="29.32" y="82.67" transform="matrix(0.9918 -0.1282 0.1282 0.9918 -10.5898 8.7203)" class="st5" width="66.31" height="7.97"/>
					
						<rect x="31.16" y="96.89" transform="matrix(0.9918 -0.1282 0.1282 0.9918 -12.3974 9.0731)" class="st5" width="66.31" height="7.97"/>
					
						<rect x="32.99" y="111.1" transform="matrix(0.9918 -0.1281 0.1281 0.9918 -14.202 9.4459)" class="st5" width="66.62" height="7.97"/>
				</g>
				<g>
					
						<rect x="34.42" y="126.47" transform="matrix(0.9918 -0.1281 0.1281 0.9918 -17.0705 9.9409)" class="st0" width="68.59" height="22.31"/>
				</g>
			</g>
			<g>
				<g>
					<polygon class="st6" points="42.26,58.3 78.82,18.58 123.33,49.14 103.87,87.67 67.53,93.98 					"/>
					
						<rect x="52.04" y="29.05" transform="matrix(0.9937 -0.1123 0.1123 0.9937 -6.2669 9.7589)" class="st2" width="62.92" height="62.92"/>
					
						<rect x="59.09" y="43.13" transform="matrix(0.9937 -0.1123 0.1123 0.9937 -4.4751 8.4356)" class="st6" width="27.11" height="1.63"/>
					
						<rect x="59.89" y="49.71" transform="matrix(0.9937 -0.1123 0.1123 0.9937 -5.1511 9.585)" class="st6" width="45.24" height="1.63"/>
					
						<rect x="60.75" y="57.3" transform="matrix(0.9937 -0.1123 0.1123 0.9937 -5.9983 9.7293)" class="st6" width="45.24" height="1.63"/>
					
						<rect x="61.61" y="64.9" transform="matrix(0.9937 -0.1123 0.1123 0.9937 -6.8455 9.8737)" class="st6" width="45.24" height="1.63"/>
					
						<rect x="62.47" y="72.49" transform="matrix(0.9937 -0.1123 0.1123 0.9937 -7.6928 10.0181)" class="st6" width="45.24" height="1.63"/>
					<path class="st7" d="M123.36,49.14l5.85,51.74c0.06,0.52,0.02,1.07-0.07,1.56c-0.4,2.09-2.13,3.81-4.36,4.06l-71.13,8.04
						c-2.14,0.24-4.1-0.94-5.01-2.75c-0.26-0.52-0.43-1.13-0.5-1.74L42.29,58.3l34,23.11l19.75-2.23L123.36,49.14z"/>
					<path class="st8" d="M129.12,102.48c-0.4,2.09-2.12,3.77-4.35,4.02l-71.13,8.04c-2.14,0.24-4.11-0.9-5.02-2.71l28.25-30.47
						l18.22-2.06L129.12,102.48z"/>
				</g>
				<g>
					<path class="st1" d="M104.74,117.7c-1.53-3.48-2.24-7.37-1.9-11.42c1.07-13,12.48-22.68,25.48-21.61
						c13,1.07,22.68,12.48,21.61,25.48c-1.07,13-12.48,22.68-25.48,21.61c-3.9-0.32-7.5-1.57-10.6-3.52l-12.94,1.58L104.74,117.7z"
						/>
					
						<ellipse transform="matrix(0.957 -0.29 0.29 0.957 -25.9509 41.2946)" class="st7" cx="126.38" cy="108.22" rx="16.65" ry="16.65"/>
					<g>
						<path class="st2" d="M128.41,112.68c-0.17,0.16-0.37,0.32-0.62,0.48c-0.25,0.16-0.53,0.3-0.83,0.42
							c-0.31,0.12-0.64,0.21-1,0.27c-0.36,0.06-0.74,0.07-1.13,0.04c-0.53-0.04-1.02-0.17-1.46-0.37c-0.44-0.2-0.81-0.47-1.11-0.81
							c-0.31-0.33-0.53-0.73-0.68-1.17c-0.15-0.45-0.2-0.94-0.15-1.49c0.05-0.6,0.2-1.12,0.45-1.57c0.25-0.45,0.59-0.82,1-1.11
							c0.41-0.29,0.9-0.5,1.45-0.63c0.55-0.13,1.15-0.16,1.81-0.11c0.53,0.04,0.99,0.11,1.37,0.21c0.38,0.1,0.7,0.19,0.98,0.28
							l0.04-0.44c0.02-0.25,0-0.51-0.07-0.75c-0.07-0.25-0.19-0.47-0.37-0.67c-0.18-0.2-0.41-0.37-0.72-0.5
							c-0.3-0.14-0.68-0.22-1.12-0.26c-0.55-0.05-1.1-0.03-1.65,0.05c-0.55,0.08-1.16,0.21-1.81,0.4l0.17-2.1
							c0.24-0.09,0.51-0.17,0.8-0.24c0.29-0.07,0.61-0.12,0.93-0.16c0.33-0.04,0.67-0.07,1.01-0.08c0.35-0.01,0.69,0,1.03,0.02
							c0.8,0.07,1.5,0.22,2.09,0.47c0.59,0.24,1.06,0.56,1.43,0.94c0.37,0.38,0.64,0.81,0.8,1.3c0.16,0.49,0.22,1,0.18,1.55
							l-0.38,4.66c-0.01,0.18-0.02,0.34-0.01,0.48c0.01,0.15,0.04,0.27,0.09,0.38c0.05,0.11,0.13,0.19,0.23,0.26
							c0.1,0.06,0.23,0.1,0.39,0.12c0.37,0.03,0.73-0.05,1.08-0.25c0.34-0.2,0.65-0.49,0.93-0.88c0.27-0.39,0.5-0.87,0.69-1.45
							c0.19-0.58,0.31-1.23,0.37-1.97c0.11-1.29-0.02-2.44-0.37-3.43c-0.35-1-0.87-1.85-1.55-2.56c-0.68-0.71-1.5-1.26-2.46-1.66
							c-0.96-0.4-1.99-0.64-3.1-0.74c-1.49-0.12-2.79,0.02-3.9,0.42c-1.11,0.4-2.04,0.99-2.78,1.75c-0.75,0.76-1.33,1.67-1.74,2.7
							c-0.41,1.04-0.66,2.13-0.76,3.28c-0.1,1.23-0.01,2.38,0.27,3.46c0.28,1.08,0.76,2.03,1.43,2.86c0.67,0.83,1.55,1.51,2.62,2.03
							c1.07,0.53,2.35,0.85,3.83,0.97c0.66,0.05,1.31,0.07,1.94,0.06c0.63-0.02,1.23-0.06,1.8-0.12c0.57-0.07,1.09-0.15,1.58-0.25
							c0.49-0.1,0.91-0.21,1.27-0.33l-0.16,1.91c-0.37,0.11-0.81,0.22-1.32,0.32c-0.51,0.1-1.06,0.18-1.64,0.24
							c-0.59,0.06-1.19,0.1-1.83,0.11c-0.63,0.01-1.25-0.01-1.87-0.06c-1.03-0.08-2-0.27-2.91-0.55c-0.92-0.28-1.76-0.65-2.54-1.12
							c-0.78-0.47-1.47-1.02-2.08-1.66c-0.61-0.64-1.11-1.36-1.51-2.17c-0.4-0.81-0.69-1.69-0.86-2.65c-0.18-0.96-0.22-2-0.13-3.1
							c0.13-1.61,0.5-3.06,1.1-4.35c0.6-1.29,1.4-2.38,2.4-3.26c0.99-0.88,2.17-1.53,3.51-1.95c1.35-0.42,2.83-0.56,4.44-0.43
							c1.49,0.12,2.84,0.46,4.05,1.02c1.21,0.56,2.23,1.29,3.07,2.2c0.84,0.91,1.46,1.96,1.87,3.17c0.41,1.2,0.56,2.52,0.44,3.93
							c-0.09,1.1-0.3,2.06-0.63,2.88c-0.33,0.82-0.76,1.5-1.27,2.04s-1.11,0.93-1.77,1.17c-0.67,0.24-1.38,0.33-2.13,0.27
							c-0.39-0.03-0.72-0.1-0.99-0.19c-0.27-0.09-0.51-0.22-0.7-0.36c-0.19-0.15-0.35-0.32-0.46-0.51
							c-0.12-0.19-0.21-0.41-0.28-0.64L128.41,112.68z M128.3,109.14c-0.25-0.08-0.53-0.15-0.85-0.23
							c-0.31-0.08-0.65-0.13-1.02-0.16c-0.65-0.05-1.18,0.03-1.59,0.25c-0.41,0.22-0.63,0.61-0.68,1.16c-0.02,0.25,0,0.48,0.08,0.67
							c0.07,0.19,0.18,0.36,0.31,0.49c0.14,0.13,0.3,0.24,0.5,0.31c0.19,0.08,0.4,0.12,0.61,0.14c0.27,0.02,0.53,0.01,0.78-0.04
							c0.25-0.05,0.48-0.12,0.69-0.22c0.21-0.09,0.41-0.2,0.58-0.33c0.17-0.12,0.32-0.24,0.44-0.36L128.3,109.14z"/>
					</g>
				</g>
			</g>
			<g>
				<path class="st2" d="M56.16,133.38l0.87,7.13c0.12,0.97-0.06,1.76-0.53,2.37c-0.47,0.61-1.19,0.97-2.14,1.08
					c-1.03,0.13-1.88-0.07-2.56-0.59c-0.67-0.52-1.08-1.33-1.21-2.43l1.99-0.24c0.06,0.52,0.22,0.9,0.47,1.15
					c0.25,0.25,0.58,0.35,1,0.3c0.38-0.05,0.65-0.19,0.8-0.44s0.21-0.57,0.16-0.96l-0.87-7.13L56.16,133.38z"/>
				<path class="st2" d="M65.73,132.74c0.82,0.35,1.5,0.89,2.04,1.62c0.54,0.73,0.87,1.6,0.99,2.59c0.12,0.99,0.01,1.91-0.34,2.76
					c-0.35,0.85-0.88,1.54-1.59,2.07c-0.72,0.53-1.55,0.86-2.49,0.97c-0.95,0.12-1.83,0-2.65-0.35c-0.82-0.35-1.5-0.89-2.04-1.63
					c-0.54-0.74-0.87-1.6-0.99-2.6c-0.12-0.99-0.01-1.91,0.34-2.75c0.35-0.84,0.88-1.53,1.6-2.06c0.71-0.53,1.54-0.86,2.49-0.97
					C64.02,132.28,64.9,132.4,65.73,132.74z M61.79,134.85c-0.42,0.32-0.72,0.75-0.91,1.28c-0.19,0.53-0.25,1.13-0.17,1.8
					c0.08,0.67,0.28,1.24,0.59,1.71c0.31,0.47,0.71,0.81,1.19,1.02c0.48,0.21,1.02,0.28,1.61,0.21c0.59-0.07,1.1-0.27,1.51-0.59
					c0.42-0.32,0.72-0.75,0.91-1.28c0.19-0.53,0.25-1.13,0.17-1.8c-0.08-0.67-0.28-1.24-0.59-1.71c-0.31-0.47-0.71-0.81-1.19-1.02
					c-0.48-0.21-1.02-0.28-1.61-0.21C62.71,134.33,62.21,134.53,61.79,134.85z"/>
				<path class="st2" d="M72.12,131.44l1.23,10.11l-2.02,0.25l-1.23-10.11L72.12,131.44z"/>
				<path class="st2" d="M84.18,140.23l-2.02,0.25l-5.36-6.32l0.84,6.88l-2.02,0.25l-1.23-10.11l2.02-0.25l5.37,6.38l-0.84-6.93
					l2.02-0.25L84.18,140.23z"/>
			</g>
		</g>
	</g>
	<g>
		<path class="st1" d="M125.73,152.64l0.35,2.17c-0.98,0.16-1.43,2.22-1.84,4.04c-0.55,2.5-1.18,5.34-3.63,5.74
			c-2.45,0.4-3.94-2.1-5.25-4.3c-0.95-1.6-2.03-3.42-3.01-3.26c-0.98,0.16-1.43,2.22-1.83,4.04c-0.55,2.5-1.17,5.34-3.62,5.74
			c-2.45,0.4-3.93-2.1-5.24-4.31c-0.95-1.6-2.03-3.42-3.01-3.26c-0.98,0.16-1.43,2.22-1.83,4.04c-0.55,2.5-1.17,5.34-3.62,5.74
			c-2.45,0.4-3.93-2.1-5.24-4.31c-0.95-1.6-2.03-3.42-3-3.26l-0.35-2.17c2.45-0.4,3.93,2.1,5.24,4.31c0.95,1.6,2.03,3.42,3,3.26
			c0.98-0.16,1.43-2.22,1.83-4.04c0.55-2.5,1.17-5.34,3.62-5.74c2.45-0.4,3.93,2.1,5.24,4.31c0.95,1.6,2.03,3.42,3.01,3.26
			c0.98-0.16,1.43-2.22,1.83-4.04c0.55-2.5,1.17-5.34,3.62-5.74c2.45-0.4,3.94,2.1,5.25,4.3c0.95,1.6,2.03,3.42,3.01,3.26
			c0.98-0.16,1.43-2.22,1.83-4.04C122.65,155.88,123.27,153.04,125.73,152.64z"/>
	</g>
</g>
</svg>
