<?xml version="1.0" encoding="utf-8"?>
<!-- Generator: Adobe Illustrator 27.0.1, SVG Export Plug-In . SVG Version: 6.00 Build 0)  -->
<svg version="1.1" id="Layer_1" xmlns="http://www.w3.org/2000/svg" xmlns:xlink="http://www.w3.org/1999/xlink" x="0px" y="0px"
	 viewBox="0 0 423.64 40" style="enable-background:new 0 0 423.64 40;" xml:space="preserve">
<style type="text/css">
	.st0{fill:#00B67A;}
	.st1{fill:#005128;}
	.st2{fill:#FFFFFF;}
</style>
<path d="M48.74,7.51h19.77v3.68h-7.79v20.75h-4.27V11.2h-7.75L48.74,7.51L48.74,7.51z M67.67,14.26h3.65v3.42h0.07
	c0.13-0.49,0.36-0.94,0.68-1.4c0.33-0.46,0.72-0.88,1.21-1.24c0.46-0.39,0.98-0.68,1.56-0.91c0.55-0.23,1.14-0.36,1.73-0.36
	c0.46,0,0.78,0.03,0.94,0.03c0.16,0.03,0.36,0.07,0.52,0.07v3.75c-0.26-0.07-0.55-0.1-0.85-0.13c-0.29-0.03-0.55-0.07-0.85-0.07
	c-0.65,0-1.27,0.13-1.86,0.39c-0.59,0.26-1.08,0.65-1.53,1.14c-0.42,0.52-0.78,1.14-1.04,1.89s-0.39,1.63-0.39,2.61v8.41H67.6
	L67.67,14.26L67.67,14.26z M95.94,31.95H92.1v-2.48h-0.07c-0.49,0.91-1.21,1.6-2.15,2.15s-1.92,0.81-2.9,0.81
	c-2.31,0-4.01-0.55-5.05-1.73c-1.04-1.14-1.56-2.9-1.56-5.21V14.26h3.91v10.85c0,1.56,0.29,2.67,0.91,3.29
	c0.59,0.65,1.43,0.98,2.51,0.98c0.81,0,1.5-0.13,2.05-0.39c0.55-0.26,1.01-0.59,1.34-1.01c0.36-0.42,0.59-0.94,0.75-1.53
	c0.16-0.59,0.23-1.24,0.23-1.92V14.26h3.91v17.69H95.94z M102.59,26.28c0.13,1.14,0.55,1.92,1.3,2.41c0.75,0.46,1.66,0.68,2.7,0.68
	c0.36,0,0.78-0.03,1.24-0.1c0.46-0.07,0.91-0.16,1.3-0.33c0.42-0.16,0.75-0.39,1.01-0.72c0.26-0.33,0.39-0.72,0.36-1.21
	c-0.03-0.49-0.2-0.91-0.55-1.24c-0.36-0.33-0.78-0.55-1.3-0.78c-0.52-0.2-1.14-0.36-1.82-0.49c-0.68-0.13-1.37-0.29-2.08-0.46
	c-0.72-0.16-1.43-0.36-2.12-0.59c-0.68-0.23-1.27-0.52-1.82-0.94c-0.52-0.39-0.98-0.88-1.27-1.5c-0.33-0.62-0.49-1.34-0.49-2.25
	c0-0.98,0.23-1.76,0.72-2.41c0.46-0.65,1.08-1.17,1.79-1.56c0.72-0.39,1.53-0.68,2.41-0.85c0.88-0.16,1.73-0.23,2.51-0.23
	c0.91,0,1.79,0.1,2.61,0.29s1.6,0.49,2.25,0.94c0.68,0.42,1.24,1.01,1.66,1.69c0.46,0.68,0.72,1.53,0.85,2.51h-4.07
	c-0.2-0.94-0.62-1.56-1.27-1.89c-0.68-0.33-1.43-0.49-2.31-0.49c-0.26,0-0.62,0.03-0.98,0.07c-0.39,0.07-0.72,0.13-1.08,0.26
	c-0.33,0.13-0.62,0.33-0.85,0.55c-0.23,0.23-0.36,0.55-0.36,0.94c0,0.49,0.16,0.85,0.49,1.14c0.33,0.29,0.75,0.52,1.3,0.75
	c0.52,0.2,1.14,0.36,1.82,0.49c0.68,0.13,1.4,0.29,2.12,0.46c0.72,0.16,1.4,0.36,2.08,0.59c0.68,0.23,1.3,0.52,1.82,0.94
	c0.52,0.39,0.98,0.88,1.3,1.47c0.33,0.59,0.49,1.34,0.49,2.18c0,1.04-0.23,1.92-0.72,2.67c-0.49,0.72-1.11,1.34-1.86,1.79
	c-0.75,0.46-1.63,0.78-2.54,1.01c-0.94,0.2-1.86,0.33-2.77,0.33c-1.11,0-2.15-0.13-3.09-0.39c-0.94-0.26-1.79-0.65-2.48-1.14
	c-0.68-0.52-1.24-1.14-1.63-1.92c-0.39-0.75-0.62-1.66-0.65-2.74h3.94v0.03H102.59z M115.46,14.26h2.96V8.92h3.91v5.31h3.52v2.9
	h-3.52v9.45c0,0.42,0.03,0.75,0.07,1.08c0.03,0.29,0.13,0.55,0.23,0.75c0.13,0.2,0.33,0.36,0.55,0.46c0.26,0.1,0.59,0.16,1.04,0.16
	c0.26,0,0.55,0,0.81-0.03c0.26-0.03,0.55-0.07,0.81-0.13v3.03c-0.42,0.07-0.85,0.1-1.27,0.13c-0.42,0.07-0.81,0.07-1.27,0.07
	c-1.04,0-1.86-0.1-2.48-0.29c-0.62-0.2-1.11-0.49-1.47-0.85c-0.36-0.39-0.59-0.85-0.72-1.4c-0.13-0.55-0.2-1.24-0.23-1.95V17.16
	h-2.96v-2.96h0V14.26z M128.59,14.26h3.68v2.41h0.07c0.55-1.04,1.3-1.76,2.28-2.22s2.02-0.68,3.19-0.68c1.4,0,2.61,0.23,3.65,0.75
	c1.04,0.49,1.89,1.14,2.57,2.02c0.68,0.85,1.21,1.86,1.53,3c0.33,1.14,0.52,2.38,0.52,3.65c0,1.21-0.16,2.35-0.46,3.45
	c-0.33,1.11-0.78,2.12-1.4,2.96c-0.62,0.85-1.4,1.53-2.38,2.05c-0.98,0.52-2.09,0.78-3.39,0.78c-0.55,0-1.14-0.07-1.69-0.16
	s-1.11-0.26-1.63-0.49c-0.52-0.23-1.01-0.52-1.43-0.88c-0.46-0.36-0.81-0.78-1.11-1.24h-0.07v8.83h-3.91V14.26H128.59z
	 M142.24,23.12c0-0.78-0.1-1.56-0.33-2.31c-0.2-0.75-0.52-1.4-0.94-1.99c-0.42-0.59-0.94-1.04-1.53-1.4
	c-0.62-0.36-1.34-0.52-2.12-0.52c-1.63,0-2.87,0.55-3.71,1.69c-0.81,1.14-1.24,2.67-1.24,4.56c0,0.91,0.1,1.73,0.33,2.48
	c0.23,0.75,0.52,1.4,0.98,1.95c0.42,0.55,0.94,0.98,1.56,1.3c0.62,0.33,1.3,0.49,2.12,0.49c0.91,0,1.63-0.2,2.25-0.55
	c0.62-0.36,1.11-0.85,1.53-1.4c0.39-0.59,0.68-1.24,0.85-1.99C142.14,24.65,142.24,23.9,142.24,23.12L142.24,23.12z M149.11,7.51
	h3.91v3.68h-3.91V7.51z M149.11,14.26h3.91v17.69h-3.91V14.26L149.11,14.26z M156.51,7.51h3.91v24.43h-3.91V7.51L156.51,7.51z
	 M172.34,32.44c-1.4,0-2.67-0.23-3.78-0.72c-1.11-0.49-2.02-1.11-2.8-1.92c-0.75-0.81-1.34-1.82-1.73-2.96s-0.62-2.41-0.62-3.75
	c0-1.34,0.2-2.57,0.62-3.71c0.39-1.14,0.98-2.12,1.73-2.96c0.75-0.81,1.69-1.47,2.8-1.92c1.11-0.46,2.38-0.72,3.78-0.72
	c1.4,0,2.67,0.23,3.78,0.72c1.11,0.46,2.02,1.11,2.8,1.92c0.75,0.81,1.34,1.82,1.73,2.96c0.39,1.14,0.62,2.38,0.62,3.71
	c0,1.37-0.2,2.61-0.62,3.75c-0.42,1.14-0.98,2.12-1.73,2.96c-0.75,0.81-1.69,1.47-2.8,1.92C175.01,32.18,173.77,32.44,172.34,32.44
	L172.34,32.44z M172.34,29.34c0.85,0,1.63-0.2,2.25-0.55c0.65-0.36,1.14-0.85,1.56-1.43c0.42-0.59,0.72-1.27,0.91-1.99
	c0.2-0.75,0.29-1.5,0.29-2.28c0-0.75-0.1-1.5-0.29-2.25c-0.2-0.75-0.49-1.4-0.91-1.99c-0.42-0.59-0.94-1.04-1.56-1.4
	c-0.65-0.36-1.4-0.55-2.25-0.55c-0.85,0-1.63,0.2-2.25,0.55c-0.65,0.36-1.14,0.85-1.56,1.4c-0.42,0.59-0.72,1.24-0.91,1.99
	c-0.2,0.75-0.29,1.5-0.29,2.25c0,0.78,0.1,1.53,0.29,2.28c0.2,0.75,0.49,1.4,0.91,1.99c0.42,0.59,0.94,1.08,1.56,1.43
	C170.74,29.18,171.49,29.34,172.34,29.34L172.34,29.34z M182.44,14.26h2.96V8.92h3.91v5.31h3.52v2.9h-3.52v9.45
	c0,0.42,0.03,0.75,0.07,1.08c0.03,0.29,0.13,0.55,0.23,0.75c0.13,0.2,0.33,0.36,0.55,0.46c0.26,0.1,0.59,0.16,1.04,0.16
	c0.26,0,0.55,0,0.81-0.03c0.26-0.03,0.55-0.07,0.81-0.13v3.03c-0.42,0.07-0.85,0.1-1.27,0.13c-0.42,0.07-0.81,0.07-1.27,0.07
	c-1.04,0-1.86-0.1-2.48-0.29c-0.62-0.2-1.11-0.49-1.47-0.85c-0.36-0.39-0.59-0.85-0.72-1.4c-0.13-0.55-0.2-1.24-0.23-1.95V17.16
	h-2.96v-2.96l0,0V14.26z"/>
<g>
	<path class="st0" d="M42.28,15.39H26.86L22.11,0.73l-4.77,14.66L1.91,15.36l12.47,9.07L9.61,39.09l12.47-9.07l12.47,9.07
		l-4.75-14.66L42.28,15.39z"/>
	<path class="st1" d="M30.87,27.75l-1.07-3.31l-7.7,5.59L30.87,27.75z"/>
</g>
<g>
	<g>
		<rect x="224.92" y="0.02" class="st0" width="198.72" height="39.98"/>
		<g>
			<g>
				<path class="st2" d="M260.15,16.68H248.7L245.17,5.8l-3.54,10.88l-11.45-0.02l9.26,6.73l-3.54,10.88l9.26-6.73l9.26,6.73
					l-3.52-10.88L260.15,16.68z"/>
				<path class="st0" d="M251.9,25.8l-0.82-2.54l-5.91,4.29L251.9,25.8z"/>
			</g>
		</g>
	</g>
	<g>
		<g>
			<g>
				<path class="st2" d="M300.13,16.68h-11.45L285.15,5.8l-3.54,10.88l-11.45-0.02l9.26,6.73l-3.54,10.88l9.26-6.73l9.26,6.73
					l-3.52-10.88L300.13,16.68z"/>
				<path class="st0" d="M291.88,25.8l-0.82-2.54l-5.91,4.29L291.88,25.8z"/>
			</g>
		</g>
	</g>
	<g>
		<g>
			<g>
				<path class="st2" d="M339.17,16.68h-11.45L324.2,5.8l-3.54,10.88l-11.45-0.02l9.26,6.73l-3.54,10.88l9.26-6.73l9.26,6.73
					l-3.52-10.88L339.17,16.68z"/>
				<path class="st0" d="M330.93,25.8l-0.82-2.54l-5.91,4.29L330.93,25.8z"/>
			</g>
		</g>
	</g>
	<g>
		<g>
			<g>
				<path class="st2" d="M379.15,16.68H367.7L364.18,5.8l-3.54,10.88l-11.45-0.02l9.26,6.73l-3.54,10.88l9.26-6.73l9.26,6.73
					l-3.52-10.88L379.15,16.68z"/>
				<path class="st0" d="M370.91,25.8l-0.82-2.54l-5.91,4.29L370.91,25.8z"/>
			</g>
		</g>
	</g>
	<g>
		<g>
			<g>
				<path class="st2" d="M418.89,16.68h-11.45L403.91,5.8l-3.54,10.88l-11.45-0.02l9.26,6.73l-3.54,10.88l9.26-6.73l9.26,6.73
					l-3.52-10.88L418.89,16.68z"/>
				<path class="st0" d="M410.64,25.8l-0.82-2.54l-5.91,4.29L410.64,25.8z"/>
			</g>
		</g>
	</g>
</g>
</svg>
